<?xml version="1.0" encoding="UTF-8"?>
<svg viewBox="0 0 730.39325 622.96936" xmlns="http://www.w3.org/2000/svg" xmlns:xlink="http://www.w3.org/1999/xlink">
 <defs>
  <filter id="em">
   <feGaussianBlur stdDeviation="4.3764"/>
  </filter>
  <filter id="es">
   <feGaussianBlur stdDeviation="3.5443"/>
  </filter>
  <filter id="et">
   <feGaussianBlur stdDeviation="1.4311"/>
  </filter>
  <filter id="ep">
   <feGaussianBlur stdDeviation="2.0636"/>
  </filter>
  <filter id="er">
   <feGaussianBlur stdDeviation="7.9195"/>
  </filter>
  <filter id="ej">
   <feGaussianBlur stdDeviation=".9652"/>
  </filter>
  <filter id="dv">
   <feGaussianBlur stdDeviation="1.6879"/>
  </filter>
  <filter id="ea">
   <feGaussianBlur stdDeviation=".5653"/>
  </filter>
  <filter id="dy">
   <feGaussianBlur stdDeviation=".6227"/>
  </filter>
  <filter id="ef">
   <feGaussianBlur stdDeviation="2.0757"/>
  </filter>
  <filter id="ed">
   <feGaussianBlur stdDeviation="1.8456"/>
  </filter>
  <filter id="du">
   <feGaussianBlur stdDeviation=".7691"/>
  </filter>
  <filter id="eb">
   <feGaussianBlur stdDeviation=".338"/>
  </filter>
  <filter id="dn">
   <feGaussianBlur stdDeviation="2.0545"/>
  </filter>
  <filter id="dr">
   <feGaussianBlur stdDeviation=".7596"/>
  </filter>
  <filter id="dp">
   <feGaussianBlur stdDeviation=".9085"/>
  </filter>
  <filter id="dq">
   <feGaussianBlur stdDeviation="2.4146"/>
  </filter>
  <filter id="dm">
   <feGaussianBlur stdDeviation=".3617"/>
  </filter>
  <filter id="dl">
   <feGaussianBlur stdDeviation=".4088"/>
  </filter>
  <filter id="dj">
   <feGaussianBlur stdDeviation=".4392"/>
  </filter>
  <filter id="di">
   <feGaussianBlur stdDeviation=".2411"/>
  </filter>
  <filter id="dh">
   <feGaussianBlur stdDeviation=".653"/>
  </filter>
  <filter id="dg">
   <feGaussianBlur stdDeviation=".4921"/>
  </filter>
  <filter id="df">
   <feGaussianBlur stdDeviation="9.7609"/>
  </filter>
  <filter id="de">
   <feGaussianBlur stdDeviation="2.4069"/>
  </filter>
  <filter id="dd">
   <feGaussianBlur stdDeviation="2.9579"/>
  </filter>
  <filter id="cw" x="-.07889" y="-.19696" width="1.1578" height="1.3939">
   <feGaussianBlur stdDeviation="36.7667"/>
  </filter>
  <filter id="eo" x="-.77568" y="-.10654" width="2.5514" height="1.2131">
   <feGaussianBlur stdDeviation="22.9585"/>
  </filter>
  <filter id="el" x="-.02028" y="-.14046" width="1.0406" height="1.2809">
   <feGaussianBlur stdDeviation="1.15"/>
  </filter>
  <filter id="ei" x="-.02427" y="-.12234" width="1.0485" height="1.2447">
   <feGaussianBlur stdDeviation=".814"/>
  </filter>
  <filter id="eq" x="-.12647" y="-.05427" width="1.253" height="1.1085">
   <feGaussianBlur stdDeviation="2.2042"/>
  </filter>
  <filter id="en" x="-.63244" y="-.03755" width="2.2649" height="1.0751">
   <feGaussianBlur stdDeviation="5.565"/>
  </filter>
  <filter id="ek" x="-.07135" y="-.17437" width="1.1427" height="1.3487">
   <feGaussianBlur stdDeviation="1.0924"/>
  </filter>
  <filter id="cx" x="-.0555" y="-.21424" width="1.111" height="1.4285">
   <feGaussianBlur stdDeviation="16.6856"/>
  </filter>
  <filter id="dx" x="-.31403" y="-.04477" width="1.6281" height="1.0895">
   <feGaussianBlur stdDeviation="4.8636"/>
  </filter>
  <filter id="eh" x="-.02503" y="-.10617" width="1.0501" height="1.2123">
   <feGaussianBlur stdDeviation="6.4103"/>
  </filter>
  <filter id="ee" x="-.14236" y="-.20058" width="1.2847" height="1.4012">
   <feGaussianBlur stdDeviation="8.0518"/>
  </filter>
  <filter id="ec" x="-.40267" y="-.08623" width="1.8053" height="1.1725">
   <feGaussianBlur stdDeviation="2.965"/>
  </filter>
  <filter id="eg" x="-.05746" y="-.29543" width="1.1149" height="1.5909">
   <feGaussianBlur stdDeviation="14.1861"/>
  </filter>
  <filter id="dz" x="-.18002" y="-.02512" width="1.36" height="1.0502">
   <feGaussianBlur stdDeviation="2.3368"/>
  </filter>
  <filter id="dw" x="-.20245" y="-.01029" width="1.4049" height="1.0206">
   <feGaussianBlur stdDeviation="1.0618"/>
  </filter>
  <filter id="dt" x="-.04556" y="-.2798" width="1.0911" height="1.5596">
   <feGaussianBlur stdDeviation="3.7943"/>
  </filter>
  <filter id="ds" x="-.03591" y="-.28065" width="1.0718" height="1.5613">
   <feGaussianBlur stdDeviation="5.773"/>
  </filter>
  <filter id="do" x="-.12083" y="-.20424" width="1.2417" height="1.4085">
   <feGaussianBlur stdDeviation="1.0825"/>
  </filter>
  <filter id="n" x="-.08779" y="-.10012" width="1.1756" height="1.2002">
   <feGaussianBlur stdDeviation=".321"/>
  </filter>
  <filter id="cv" x="-.09609" y="-.23941" width="1.1922" height="1.4788">
   <feGaussianBlur stdDeviation="23.826"/>
  </filter>
  <filter id="da" x="-.14619" y="-.0105" width="1.2924" height="1.021">
   <feGaussianBlur stdDeviation="1.6613"/>
  </filter>
  <filter id="cy" x="-.0102" y="-.24703" width="1.0204" height="1.494">
   <feGaussianBlur stdDeviation="1.756"/>
  </filter>
  <filter id="cz" x="-.0175" y="-.83714" width="1.035" height="2.6743">
   <feGaussianBlur stdDeviation="2.1954"/>
  </filter>
  <filter id="dc" x="-.10244" y="-.3828" width="1.2049" height="1.7656">
   <feGaussianBlur stdDeviation="7.6902"/>
  </filter>
  <filter id="db" x="-.25096" y="-.04643" width="1.5019" height="1.0929">
   <feGaussianBlur stdDeviation="6.5153"/>
  </filter>
  <filter id="dk" x="-.01662" y="-.12688" width="1.0332" height="1.2538"/>
  <linearGradient id="b">
   <stop offset="0"/>
   <stop stop-opacity="0" offset="1"/>
  </linearGradient>
  <linearGradient id="j">
   <stop stop-color="#4a2e0b" offset="0"/>
   <stop stop-color="#d7820c" offset="1"/>
  </linearGradient>
  <linearGradient id="e">
   <stop stop-color="#0a0a0a" offset="0"/>
   <stop stop-color="#565656" offset="1"/>
  </linearGradient>
  <linearGradient id="l">
   <stop offset="0"/>
   <stop stop-color="#1a1a1a" offset="1"/>
  </linearGradient>
  <linearGradient id="k">
   <stop stop-color="#d86d00" offset="0"/>
   <stop stop-color="#e08c34" offset=".192"/>
   <stop stop-color="#fefdfa" offset=".3107"/>
   <stop stop-color="#fffdb1" offset=".6487"/>
   <stop stop-color="#cc9529" offset=".75"/>
   <stop stop-color="#684206" offset="1"/>
  </linearGradient>
  <linearGradient id="a">
   <stop stop-color="#fff" offset="0"/>
   <stop stop-color="#fff" stop-opacity="0" offset="1"/>
  </linearGradient>
  <linearGradient id="m">
   <stop stop-color="#261b0a" offset="0"/>
   <stop stop-color="#a57829" offset="1"/>
  </linearGradient>
  <linearGradient id="i">
   <stop stop-color="#f9f9f9" offset="0"/>
   <stop stop-color="#f9f9f9" stop-opacity="0" offset="1"/>
  </linearGradient>
  <linearGradient id="h">
   <stop stop-color="#fff" offset="0"/>
   <stop stop-color="#939393" offset="1"/>
  </linearGradient>
  <linearGradient id="d">
   <stop stop-color="#4d4d4d" offset="0"/>
   <stop stop-color="#4d4d4d" stop-opacity="0" offset="1"/>
  </linearGradient>
  <linearGradient id="g">
   <stop stop-color="#fff" offset="0"/>
   <stop stop-color="#ccc" offset="1"/>
  </linearGradient>
  <linearGradient id="c">
   <stop stop-color="#090909" offset="0"/>
   <stop stop-color="#2f2f2f" offset="1"/>
  </linearGradient>
  <linearGradient id="cm" x1="2800.3" x2="3009.6" y1="40.878" y2="-209.64" gradientUnits="userSpaceOnUse">
   <stop stop-opacity="0" offset="0"/>
   <stop offset=".5"/>
   <stop stop-opacity="0" offset="1"/>
  </linearGradient>
  <linearGradient id="cc" x1="3006.9" x2="3016.8" y1="573.97" y2="679.69" gradientUnits="userSpaceOnUse">
   <stop stop-color="#eeddc0" offset="0"/>
   <stop stop-color="#c38e35" offset=".6056"/>
   <stop stop-color="#d8b270" offset="1"/>
  </linearGradient>
  <linearGradient id="cb" x1="3026.9" x2="3037.1" y1="600.13" y2="691.55" gradientUnits="userSpaceOnUse">
   <stop stop-color="#eeddc0" offset="0"/>
   <stop stop-color="#c38e35" offset=".4975"/>
   <stop stop-color="#d8b270" offset="1"/>
  </linearGradient>
  <linearGradient id="bs" x1="2600.9" x2="2671.4" y1="44.862" y2="44.684" gradientUnits="userSpaceOnUse">
   <stop stop-color="#0a0a0a" offset="0"/>
   <stop stop-color="#565656" stop-opacity="0" offset="1"/>
  </linearGradient>
  <linearGradient id="br" x1="2600.3" x2="2726.8" gradientUnits="userSpaceOnUse">
   <stop stop-color="#fff" stop-opacity="0" offset="0"/>
   <stop stop-color="#fff" stop-opacity="0" offset=".5"/>
   <stop stop-color="#fff" stop-opacity=".2196" offset=".75"/>
   <stop stop-color="#fff" stop-opacity="0" offset="1"/>
  </linearGradient>
  <linearGradient id="bn" x1="2842.2" x2="2911" y1="495.36" y2="490.12" gradientUnits="userSpaceOnUse">
   <stop offset="0"/>
   <stop stop-color="#1c1c1c" offset="1"/>
  </linearGradient>
  <linearGradient id="bm" x1="2914.3" x2="3276" y1="777.59" y2="452.4" gradientUnits="userSpaceOnUse">
   <stop stop-color="#0d0d0d" offset="0"/>
   <stop stop-color="#090909" offset="1"/>
  </linearGradient>
  <linearGradient id="bl" x1="3243.5" x2="3263.4" y1="496.02" y2="741.49" gradientUnits="userSpaceOnUse">
   <stop stop-color="#0b0b0b" offset="0"/>
   <stop stop-color="#1b1b1b" offset="1"/>
  </linearGradient>
  <linearGradient id="bd" x1="3302.4" x2="3295.6" y1="564.15" y2="561.65" gradientUnits="userSpaceOnUse">
   <stop stop-color="#666" offset="0"/>
   <stop stop-color="#666" stop-opacity="0" offset="1"/>
  </linearGradient>
  <linearGradient id="at" x1="3381.7" x2="3394.8" y1="217.2" y2="189.94" gradientUnits="userSpaceOnUse">
   <stop stop-color="#333" offset="0"/>
   <stop stop-color="#191919" offset="1"/>
  </linearGradient>
  <linearGradient id="ap" x1="3016.5" x2="3057" y1="264.89" y2="194.61" gradientUnits="userSpaceOnUse">
   <stop stop-color="#515151" offset="0"/>
   <stop stop-color="#fff" offset="1"/>
  </linearGradient>
  <linearGradient id="an" x1="3391.7" x2="3421.5" y1="234.95" y2="212.51" gradientUnits="userSpaceOnUse">
   <stop offset="0"/>
   <stop stop-color="#353535" offset="1"/>
  </linearGradient>
  <linearGradient id="ai" x1="3019.1" x2="3486.9" gradientUnits="userSpaceOnUse">
   <stop stop-color="#fff" stop-opacity="0" offset="0"/>
   <stop stop-color="#fff" stop-opacity=".9339" offset=".5"/>
   <stop stop-color="#fff" stop-opacity="0" offset="1"/>
  </linearGradient>
  <linearGradient id="w" x1="4324.5" x2="4322.9" y1="207.46" y2="408.87" gradientUnits="userSpaceOnUse">
   <stop stop-color="#484848" offset="0"/>
   <stop stop-color="#5f5f5f" offset=".1289"/>
   <stop stop-color="#1a1a1a" offset=".3203"/>
   <stop stop-color="#2a2a2a" offset="1"/>
  </linearGradient>
  <linearGradient id="v" x1="3921" x2="4297.2" gradientUnits="userSpaceOnUse">
   <stop stop-color="#4e4e4e" offset="0"/>
   <stop stop-color="#1a1a1a" offset="1"/>
  </linearGradient>
  <linearGradient id="cu" x1="3498.4" x2="2877.7" y1="504.95" y2="-227.9" gradientUnits="userSpaceOnUse" xlink:href="#b"/>
  <linearGradient id="ct" x1="2695.7" x2="2683.2" y1="-2.6378" y2="52.005" gradientUnits="userSpaceOnUse" xlink:href="#j"/>
  <linearGradient id="cs" x1="3069.5" x2="3091.1" y1="9.0735" y2="36.216" gradientUnits="userSpaceOnUse" xlink:href="#j"/>
  <linearGradient id="cr" x1="2311" x2="3022.4" y1="606.57" y2="597.79" gradientUnits="userSpaceOnUse" xlink:href="#e"/>
  <linearGradient id="cq" x1="2356.7" x2="2347.7" y1="924.34" y2="860.7" gradientUnits="userSpaceOnUse" xlink:href="#l"/>
  <linearGradient id="cp" x1="2379.9" x2="2604.1" y1="668.5" y2="663.28" gradientUnits="userSpaceOnUse" xlink:href="#e"/>
  <linearGradient id="co" x1="2418.9" x2="2405" y1="996.69" y2="897.76" gradientUnits="userSpaceOnUse" xlink:href="#l"/>
  <linearGradient id="cn" x1="2705.3" x2="2698.3" y1="30.754" y2="66.826" gradientUnits="userSpaceOnUse" xlink:href="#e"/>
  <linearGradient id="cl" x1="2732.3" x2="2734.3" y1="-34.878" y2="51.194" gradientUnits="userSpaceOnUse" xlink:href="#k"/>
  <linearGradient id="ck" x1="3108.2" x2="3107.7" y1="47.134" y2="36.78" gradientUnits="userSpaceOnUse" xlink:href="#b"/>
  <linearGradient id="cj" x1="2799.1" x2="3043.1" y1="-184.83" y2="13.163" gradientUnits="userSpaceOnUse" xlink:href="#a"/>
  <linearGradient id="ci" x1="3108.2" x2="3108.7" y1="20.618" y2="32.992" gradientUnits="userSpaceOnUse" xlink:href="#b"/>
  <linearGradient id="ch" x1="3098.2" x2="3146.4" y1="-16.923" y2="39.645" gradientUnits="userSpaceOnUse" xlink:href="#k"/>
  <linearGradient id="cg" x1="2920" x2="2931.4" y1="75.219" y2="212.36" gradientUnits="userSpaceOnUse" xlink:href="#a"/>
  <linearGradient id="cf" x1="3e3" x2="2974.3" y1="729.5" y2="298.08" gradientUnits="userSpaceOnUse" xlink:href="#a"/>
  <linearGradient id="ce" x1="2944.3" x2="2941.4" y1="563.79" y2="453.79" gradientUnits="userSpaceOnUse" xlink:href="#a"/>
  <linearGradient id="cd" x1="3025.4" x2="3021.9" y1="539.71" y2="497.28" gradientUnits="userSpaceOnUse" xlink:href="#a"/>
  <linearGradient id="ca" x1="2754.3" x2="2728.6" y1="1143.8" y2="663.79" gradientUnits="userSpaceOnUse" xlink:href="#a"/>
  <linearGradient id="bz" x1="2946.1" x2="2971.6" y1="623.63" y2="622.2" gradientUnits="userSpaceOnUse" xlink:href="#m"/>
  <linearGradient id="by" x1="2954.3" x2="2969.1" y1="566.83" y2="565.04" gradientUnits="userSpaceOnUse" xlink:href="#m"/>
  <linearGradient id="bx" x1="2362.7" x2="2356.6" y1="892.4" y2="-181.15" gradientUnits="userSpaceOnUse" xlink:href="#a"/>
  <linearGradient id="bw" x1="2426.5" x2="2380.6" y1="1061.4" y2="-156.88" gradientUnits="userSpaceOnUse" xlink:href="#a"/>
  <linearGradient id="bv" x1="2024.2" x2="3234.3" y1="802.64" y2="-187.31" gradientUnits="userSpaceOnUse" xlink:href="#a"/>
  <linearGradient id="bu" x1="2327.7" x2="2341.6" y1="1116.5" y2="-212.05" gradientUnits="userSpaceOnUse" xlink:href="#a"/>
  <linearGradient id="bt" x1="3383" x2="3390.1" y1="801.65" y2="447.36" gradientUnits="userSpaceOnUse" xlink:href="#a"/>
  <linearGradient id="bq" x1="2981.3" x2="2959.4" y1="-84.473" y2="-.90195" gradientUnits="userSpaceOnUse" xlink:href="#b"/>
  <linearGradient id="bp" x1="2973.2" x2="2993.3" y1="2.6837" y2="-50.552" gradientUnits="userSpaceOnUse" xlink:href="#a"/>
  <linearGradient id="bo" x1="3177" x2="2770" y1="731.17" y2="197.11" gradientUnits="userSpaceOnUse" xlink:href="#b"/>
  <linearGradient id="bk" x1="3580.2" x2="3511.5" y1="575.07" y2="567.73" gradientUnits="userSpaceOnUse" xlink:href="#a"/>
  <linearGradient id="bj" x1="2975.7" x2="3021.8" gradientUnits="userSpaceOnUse" xlink:href="#b"/>
  <linearGradient id="bi" x1="3534.9" x2="3569.9" y1="690.53" y2="384.18" gradientUnits="userSpaceOnUse" xlink:href="#a"/>
  <linearGradient id="bh" x1="2882.9" x2="3510" y1="132.74" y2="240.79" gradientUnits="userSpaceOnUse" xlink:href="#a"/>
  <linearGradient id="bg" x1="3285.5" x2="3271.8" y1="521.65" y2="430.38" gradientUnits="userSpaceOnUse" xlink:href="#i"/>
  <linearGradient id="bf" x1="3282.5" x2="3284.6" y1="508.38" y2="550.86" gradientUnits="userSpaceOnUse" xlink:href="#h"/>
  <linearGradient id="be" x1="3279.5" x2="3281.7" y1="557.79" y2="611.29" gradientUnits="userSpaceOnUse" xlink:href="#h"/>
  <linearGradient id="bc" x1="3177.7" x2="3179.3" y1="224.99" y2="238.89" gradientUnits="userSpaceOnUse" xlink:href="#i"/>
  <linearGradient id="bb" x1="3276.5" x2="3284.6" y1="552.7" y2="575.04" gradientUnits="userSpaceOnUse" xlink:href="#d"/>
  <linearGradient id="ba" x1="3265.1" x2="3271.9" y1="567.35" y2="565.22" gradientUnits="userSpaceOnUse" xlink:href="#d"/>
  <linearGradient id="az" x1="2957.6" x2="2980.2" gradientUnits="userSpaceOnUse" xlink:href="#b"/>
  <linearGradient id="ay" x1="2962.5" x2="2965.4" y1="772.8" y2="448.67" gradientUnits="userSpaceOnUse" xlink:href="#a"/>
  <linearGradient id="ax" x1="3057.8" x2="3027.5" y1="820.94" y2="359.57" gradientUnits="userSpaceOnUse" xlink:href="#a"/>
  <linearGradient id="aw" x1="2903.7" x2="2870.5" y1="742.38" y2="322.79" gradientUnits="userSpaceOnUse" xlink:href="#a"/>
  <linearGradient id="av" x1="2893.3" x2="2860.1" y1="741.64" y2="322.04" gradientUnits="userSpaceOnUse" xlink:href="#a"/>
  <linearGradient id="au" x1="2831.3" x2="2898.8" y1="499.61" y2="495.41" gradientUnits="userSpaceOnUse" xlink:href="#a"/>
  <linearGradient id="as" x1="3083.3" x2="2736.1" y1="261.24" y2="277.56" gradientUnits="userSpaceOnUse" xlink:href="#b"/>
  <linearGradient id="ar" x1="3059.4" x2="3069.3" y1="208.43" y2="188.78" gradientUnits="userSpaceOnUse" xlink:href="#b"/>
  <linearGradient id="aq" x1="3085.1" x2="3114.5" y1="201.39" y2="180.06" gradientUnits="userSpaceOnUse" xlink:href="#b"/>
  <linearGradient id="ao" x1="3089.7" x2="3063.1" y1="201.48" y2="268.62" gradientUnits="userSpaceOnUse" xlink:href="#g"/>
  <linearGradient id="am" x1="3382.6" x2="3404.5" y1="214.95" y2="210.5" gradientUnits="userSpaceOnUse" xlink:href="#a"/>
  <linearGradient id="al" x1="3405" x2="3431.1" y1="186.48" y2="244.7" gradientUnits="userSpaceOnUse" xlink:href="#g"/>
  <linearGradient id="ak" x1="2966.2" x2="3330.2" y1="180.53" y2="134.54" gradientUnits="userSpaceOnUse" xlink:href="#a"/>
  <linearGradient id="aj" x1="3062.3" x2="3404.2" y1="101.02" y2="176.55" gradientUnits="userSpaceOnUse" xlink:href="#a"/>
  <linearGradient id="ah" x1="3050.2" x2="3388" y1="155.73" y2="140" gradientUnits="userSpaceOnUse" xlink:href="#a"/>
  <linearGradient id="ag" x1="3024.4" x2="3123.2" y1="209.22" y2="222.6" gradientUnits="userSpaceOnUse" xlink:href="#d"/>
  <linearGradient id="af" x1="3054" x2="3088.9" gradientUnits="userSpaceOnUse" xlink:href="#a"/>
  <linearGradient id="ae" x1="3029.2" x2="3061.9" y1="251.32" y2="200.05" gradientUnits="userSpaceOnUse" xlink:href="#b"/>
  <linearGradient id="ad" x1="4367.9" x2="3435.1" y1="703" y2="171.9" gradientUnits="userSpaceOnUse" xlink:href="#b"/>
  <linearGradient id="ac" x1="3931.8" x2="4469.2" y1="141.82" y2="521.56" gradientUnits="userSpaceOnUse" xlink:href="#c"/>
  <linearGradient id="ab" x1="4396.3" x2="4426.8" y1="390.45" y2="392.54" gradientUnits="userSpaceOnUse" xlink:href="#b"/>
  <linearGradient id="aa" x1="4274.1" x2="4420.4" y1="397.79" y2="580.31" gradientUnits="userSpaceOnUse" xlink:href="#c"/>
  <linearGradient id="z" x1="3877.9" x2="4449.8" y1="161.76" y2="210.02" gradientUnits="userSpaceOnUse" xlink:href="#c"/>
  <linearGradient id="y" x1="4028.7" x2="4453.3" gradientUnits="userSpaceOnUse" xlink:href="#a"/>
  <linearGradient id="x" x1="4141" x2="4455.6" gradientUnits="userSpaceOnUse" xlink:href="#a"/>
  <linearGradient id="u" x1="3825.8" x2="4355.8" y1="232.73" y2="403.33" gradientUnits="userSpaceOnUse" xlink:href="#b"/>
  <linearGradient id="t" x1="3912.1" x2="4333.3" y1="152.3" y2="262.08" gradientUnits="userSpaceOnUse" xlink:href="#a"/>
  <linearGradient id="s" x1="4302.5" x2="3992.7" y1="656.96" y2="297.95" gradientUnits="userSpaceOnUse" xlink:href="#b"/>
  <radialGradient id="r" cx="2698.2" cy="7.4727" r="23.654" gradientTransform="matrix(1.7468 .36004 -.27595 1.3388 -2009.7 -982.3)" gradientUnits="userSpaceOnUse">
   <stop stop-color="#fff" stop-opacity="0" offset="0"/>
   <stop stop-color="#fff" stop-opacity="0" offset=".5314"/>
   <stop stop-color="#fff" stop-opacity=".4449" offset=".7946"/>
   <stop stop-color="#fff" stop-opacity="0" offset="1"/>
  </radialGradient>
  <radialGradient id="p" cx="3011.7" cy="528.62" r="62.119" gradientTransform="matrix(.11848 .78988 -1.7077 .25616 3562.3 -1979.8)" gradientUnits="userSpaceOnUse">
   <stop stop-color="#eeddc0" offset="0"/>
   <stop stop-color="#c38e35" offset=".6859"/>
   <stop stop-color="#d8b270" offset="1"/>
  </radialGradient>
  <radialGradient id="o" cx="3244.6" cy="359" r="180.22" gradientTransform="matrix(.99248 -.1224 .09878 .80094 -11.065 334.68)" gradientUnits="userSpaceOnUse">
   <stop offset="0"/>
   <stop stop-color="#161616" offset="1"/>
  </radialGradient>
  <radialGradient id="f" cx="2286.5" cy="186.9" r="4.0649" gradientTransform="matrix(1.5415 -.13792 .12212 1.3648 -1260.9 247.27)" gradientUnits="userSpaceOnUse">
   <stop stop-color="#fff" offset="0"/>
   <stop stop-color="#fbfbfb" offset=".5"/>
   <stop stop-color="#535353" offset="1"/>
  </radialGradient>
  <radialGradient id="q" cx="2704.6" cy="9.6651" r="17.5" gradientTransform="matrix(1.481 .08714 -.03872 .65807 -1300 -243.33)" gradientUnits="userSpaceOnUse" xlink:href="#b"/>
 </defs>
 <g transform="matrix(.45212 0 0 .45212 -1251.3 246.47)">
  <path d="m3130.2 565.77c11.868-2.967 990.98-201.76 990.98-201.76l-124.61-86.043-252.2-160.22s-809.99 121.65-827.8 133.52-32.637 71.208-32.637 71.208l91.977 86.043 44.505 77.142z" fill="url(#cu)" filter="url(#cw)" stroke="#000"/>
  <g transform="translate(706.15 -450.99)">
   <path d="m2679.7 33.255c-0.1786-0.35714 0-10.893 3.125-20.536s10.179-20.357 10.179-20.357l6.4285 0.625s2.5 2.4107 2.3214 2.8571-6.3393 10-8.3035 17.232-2.6786 10.357-2.3215 14.464-2.9464 4.9107-3.3928 5-8.0357 0.71429-8.0357 0.71429z" fill="url(#ct)" stroke="#000"/>
   <path d="m3091.3 28.076c-3.7965-4.0598-9.8436-8.8594-12.857-18.304 0-2.8571-9.4642-0.26786-9.4642-0.26786s-2.6786 1.0714-2.5 1.7857c3.5459 11.083 9.2221 19.33 19.107 26.964 1.0714 0.71428 5.7143-10.179 5.7143-10.179z" fill="url(#cs)" stroke="#000"/>
   <path d="m2728.4 4.3289s-12.627-8.5863-19.698-7.5761-15.152 2.5254-19.698-3.5355-4.5457-18.183 0.5051-24.244 16.668-10.607 18.688-10.607 18.688-1.5152 18.688-1.5152c41.163-19.377 118.57-42.267 154.55-48.487 14.647-1.0102 55.84-2.9436 65.66-1.5152 27.779 4.0406 113.14 41.921 125.76 48.992s28.284 26.769 28.284 26.769l15.152 18.688v5.0508s-18.183 0.50508-27.274 2.0203-21.213 4.5457-21.213 4.5457-8.5863-11.112-14.647-16.162-83.338-47.982-88.893-50.508-9.5965-3.0305-12.122-4.0406-25.759-9.5964-25.759-9.5964c-15.933 12.667-15.145 7.088-34.345 6.566-2.0203 0-34.85 10.607-34.85 10.607l-51.518 17.173s-38.891 18.183-40.911 19.193-15.657 9.5964-15.657 9.5964-2.5254 3.0305-9.5965 6.0609-13.132 3.0305-13.132 3.0305z" fill="#1a1a1a" stroke="#000"/>
   <path d="m2317.9 87.719 0.3572-5.3571s1.0714-6.25 1.6071-7.6786 3.0357-6.9643 4.4643-7.6786 6.25-2.3214 7.1429-2.3214 45.714-0.53571 46.786-0.53571 16.25 18.929 16.786 20.357 6.7857 25 6.7857 25.893-15-0.71428-15-0.71428l-55.893-4.4643z" stroke="#000"/>
   <path d="m2359.8 948.26s0.7143 1.6071 7.5 1.7857 32.5 0 32.5 0-3.2143-26.607-3.9285-28.571-6.25-14.107-6.25-14.107-5-4.4643-5.8929-4.6428-5.8929 1.25-6.7857 1.6071-7.1429 8.2143-7.1429 8.2143-8.2143 16.25-8.3928 17.143-1.6072 18.571-1.6072 18.571z" fill="#333" stroke="#000"/>
   <path d="m2329.9 933.67s1.7677 3.0305 4.0406 3.0305 18.688-1.5152 18.688-1.5152l-7.8287-51.518-2.0203-14.647-9.3439-3.283-4.0406 13.385-3.0305 33.082 2.0203 14.9z" fill="#333" stroke="#000"/>
   <path d="m2317.5 85.576s-5.5357 31.429-5.1786 53.571 5 94.643 2.1429 112.5-7.1429 90-7.1429 90l1.4286 187.14s4.2857 161.43 4.2857 171.43v53.571c0 5.7143 5 76.429 5 76.429v58.571l1.4286 19.286s13.571 32.143 11.429 27.143-1.9494-37.466-0.1659-51.385c1.8036-14.076 3.2322-15.707 3.2322-15.707s8.7373 0.77121 9.2424 21.587c0.2599 10.711 4.7475 37.482 4.7475 37.482s4.3723 13.737 6.5152 15.88 6.7245 7.482 6.7245 3.9106c3.9153-22.489 9.227-32.505 20.418-47.482l-5-408.57s-7.1428-302.14-6.4285-305-10.714-87.857-10.714-87.857z" fill="url(#cr)" stroke="#000"/>
   <path d="m2363.2 331.11-31.315 56.569-23.234 18.183s1.0102 164.65 1.0102 168.7 3.0304 169.71 3.0304 169.71l2.0203 29.294s19.193 19.193 21.213 33.335 6.0609 41.416 6.0609 41.416h17.173l10.102-9.0914 9.0914-94.954s-2.0203-296.98 1.0101-308.1-16.162-105.06-16.162-105.06z" fill="#fff" filter="url(#eo)" opacity=".0773" stroke="#000"/>
   <path d="m2332.9 865.07 34.643-1.6333s3.3144 35.43 2.8548 42.552-6.7857 39.434-6.7857 39.434-7.1451-3.3144-8.5237-3.7739-7.0745-18.478-10.291-38.237-5.5141-30.785-7.5819-33.772-4.3152-4.5701-4.3152-4.5701z" fill="url(#cq)"/>
   <path d="m2357.2 95.031 9.4688 470.91 2.8438 352.12s8.5802-18.732 16.437-10.875 7.7523 25.052 13.031 46.781c3.6789 15.143 8.4063 32.679 13.406 41.25s15.719 15.719 15.719 15.719l9.5-50.594-9.5-300.12s-13.589-262.15-12.875-266.44-24.281-197.14-24.281-205-13.562-82.844-13.562-82.844l-20.188-10.906z" fill="url(#cp)" stroke="#000"/>
   <path d="m2379.6 903.43 56.071-1.4286s-4.2857 47.857-5 58.929 0 44.643 0 44.643-5 4.2857-7.1429 3.5714-18.214-19.286-23.214-50-8.5714-42.857-11.786-47.5-8.9285-8.2143-8.9285-8.2143z" fill="url(#co)"/>
   <path d="m2374.5 103.79s10 75.714 10.714 90.714 13.571 65 13.571 78.571 14.286 172.86 14.286 172.86 8.5714 272.14 12.143 309.29 3.5714 136.43 3.5714 136.43 3.5714 30.714 0.7143 35.714-5.7143 36.429-5 44.286 2.1428 37.143 2.1428 37.143 26.429-1.4286 74.286-9.2858 469.29-97.857 519.29-105 361.43-65.714 361.43-65.714l32.143-10.714s6.4286-12.857 5.7143-25-2.1429-40 0-60 1.4286-15-3.5714-45-8.5715-32.143-6.4286-50 12.143-178.57 12.143-178.57-4.2857-315.71-18.571-330-20-5.7143-20-5.7143z" fill="#080808" stroke="#000"/>
   <path d="m3388.1 35.219s-41.094 1.0714-51.094 2.5-116.07 7.1562-117.5 7.1562-8.1876-0.375-8.1876-0.375-94.665 1.4375-96.094 1.4375-351.41 9.2812-376.41 9.2812-324.31-5-324.31-5-42.884 4.7111-58.188 5.4688c-9.9877 0.49446-23.937 0.96875-23.937 0.96875-5.1461 1.0697-15.887 12.96-14.75 29l4.0937-0.53125c-1.3853-21.957 14.284-16.78 29.688-16.781s26.087-2.9322 30.344 4.1875c7.1428 10 24.187 62.679 34.187 121.25s17.156 275.71 27.156 304.28 21.406 35.719 21.406 35.719 212.86 31.442 270 37.156 230.53 6.9062 230.53 6.9062 68.214-5.8973 152.5-24.469 262.35-74.219 291.28-89.219 39.996-18.232 49.281-27.875 7.8616-32.487 8.2187-57.844-3.5892-138.57-10.375-184.28-16.054-87.879-22.125-108.59-7.5178-30.353-17.875-39.281-27.844-11.062-27.844-11.062z" stroke="#000"/>
   <path d="m2598.7 53.408c2.0203 0 34.49-0.3765 44.595-0.81889 23.022-1.008 61.288 9.6675 81.521 5.0074 6.566-2.0203 9.4126-4.9895 10.423-8.525 1.9683-9.6182 4.3804-18.022-4.27-18.479-3.5355 0-12.879 0.75761-12.879 0.75761s-15.91-0.25254-19.193-1.5152-8.8388-3.5355-8.8388-3.5355-8.0813 0.75761-10.102 3.0305-8.3337 11.617-8.3337 11.617-3.283 2.7779-9.5965 2.0203-27.274-1.7678-27.274-1.7678c-10.224-0.62494-31.965-4.0806-34.401 5.7471z" fill="url(#cn)" stroke="#000"/>
   <path d="m2601.8 45.576c58.348 2.153 87.458 5.6532 108.75 0.89286 5.5357-4.4643 5.3572-11.429 12.679-15 11.728-3.7499 19.841 1.4518 17.143 14.286-4.1071 11.071-11.786 13.214-12.678 13.214s-21.607 3.0357-48.393-1.0714-82.143-3.2143-82.143-3.2143z" fill="#0a0a0a"/>
   <path d="m2599.6 49.684s78.036 3.0357 83.214 3.3929 23.75 0.71429 26.25-0.35714 9.2858-10.357 9.4643-11.071 1.7857-4.4643 2.5-4.4643 6.0715-0.53571 7.5-0.53571 6.7857 3.0357 6.9643 4.6429-0.8928 5.1786-0.8928 5.1786l-8.0358 6.0714s-7.8571 3.9286-10.536 3.75-57.857-2.8571-58.571-2.8571-58.036-2.5-58.036-2.5z" filter="url(#el)" stroke="#000"/>
   <path d="m2687.1-27.134s2.9744-7.163 10.298-9.1833c13.871-2.1334 23.466 0.4979 34.136 12.109 0 0-2.7779 4.5457-4.7982 7.8287s-5.3033 8.8388-5.3033 8.8388c-12.951-9.5109-26.802-6.571-35.608-6.8185-1.3609-4.8536-0.1758-8.8586 1.2754-12.775z" fill="url(#r)" opacity=".5794"/>
   <path d="m2719.3-8.8031s-1.8619-17.887 17.678-19.698c25.272-2.3424 80.812-21.718 92.934-25.759s63.64-22.223 71.721-23.739 42.426-11.112 74.751 3.5355 86.873 27.779 94.449 33.84 21.213 16.162 23.234 16.162 10.607-2.5254 16.668 3.5355 8.0812 11.112 8.0812 11.112 3.5355 16.162-4.0406 16.668-22.728-22.223-29.8-28.284-118.19-55.558-135.36-55.558-38.386-2.0203-88.388 21.213-111.12 50.508-115.66 52.528-17.172 10.607-22.223 4.5457-4.0406-10.102-4.0406-10.102z" stroke="#000"/>
   <path d="m3097-22.638s-10.048-11.76-16.25-16.429c-8.6229-6.4909-45.798-24.061-86.071-39.286-34.817-13.162-44.643-15.714-57.143-15.179-16.092 0.68968-57.322 1.7857-57.322 1.7857s-87.321 22.679-98.393 26.964-55.714 22.143-55.714 22.143l15.357 12.857s4.6428 1.4286 7.1428 1.4286 116.79-35.714 118.57-36.429 65-15.357 66.786-15.714 23.214 2.1429 37.857 7.1429 92.143 33.571 92.143 33.571l22.143 15z" fill="url(#cm)"/>
   <path d="m2724.1 30.845s-3.7881 6.8185-4.2931 8.8388c-0.5051 2.0203-0.5051 6.0609 3.0304 7.8287s9.0914 1.5152 11.364-0.25254 5.3033-9.5964 5.3033-9.5964c5.9765-15.896 6.6006-31.498 4.7983-45.204-1.0102-7.3236-3.7881-13.637-3.7881-13.637-4.6596-4.7949-12.252-1.421-13.637 4.0406-0.2525 1.5152 0.5051 8.8388 0.5051 8.8388 2.9635 14.231 0.9453 23.796-3.283 39.143z" fill="url(#cl)" stroke="#000"/>
   <path d="m3132 18.85c-0.7576 0.37881-12.879 5.5558-20.961 6.6923s-20.203 1.0102-20.203 1.0102-3.7881 0.75762-5.4296 3.7881-1.6415 6.3134-0.7576 10.354 2.1466 5.9346 2.1466 5.9346c18.56 2.0497 39.908 0.68168 56.19 0.37881 0 0-5.3033-16.668-5.6821-17.299s-5.3033-10.859-5.3033-10.859z" fill="#1d1d1d" stroke="#000"/>
   <path d="m3083.7 36.906s15.657 0.75762 22.223-0.25254 18.688-3.283 18.688-3.283-0.2526 4.2932 4.0406 7.3236 12.374 5.5558 12.374 5.5558-3.5355 1.7678-4.5456 1.7678-41.164 0.25254-42.426 0.25254-7.5761-1.2627-7.5761-1.2627z" fill="url(#ck)"/>
   <path d="m3211 45.998c1.2627-1.2627 2.6126-6.8577 0.5178-10.729-1.8662-3.449-6.8312-4.4231-6.8312-4.4231l-9.0914 2.0203s-14.647 1.7678-28.032 1.0102-17.678-4.0406-21.213-7.8287c-3.9739-6.1766-12.544-10.426-18.183-4.5457-1.7995 1.8767-4.4252 8.5591-3.283 13.89 1.5153 7.0711 11.112 11.112 15.405 11.364s42.174-0.50508 46.214-0.75762 24.496 0 24.496 0z" fill="#0a0a0a" stroke="#000"/>
   <path d="m2689.8-5.495c0.7143 0.53571 1.9643 2.8571 5.7143 2.8571s8.2143 0 10.536-0.35714 3.9286-0.89286 5.3572-0.35714 10.893 3.3929 10.893 3.3929l-1.7857-3.75s-0.3571-5-1.25-5-8.2143-5-14.286-5-17.679 3.3929-17.679 3.3929z" fill="url(#q)"/>
   <path d="m2743.3-1.4795c-4.5456 2.0203-14.9 8.8388-19.95 2.7779s-4.0406-10.102-4.0406-10.102-1.8619-17.887 17.678-19.698c25.272-2.3424 80.812-21.718 92.934-25.759s63.64-22.223 71.721-23.739 42.426-11.112 74.751 3.5355 86.873 27.779 94.449 33.84 21.213 16.162 23.234 16.162 10.607-2.5254 16.668 3.5355 8.0812 11.112 8.0812 11.112" fill="none" stroke="url(#cj)" stroke-width="2"/>
   <path d="m3089.3 26.3s15.91 1.0102 22.728-0.75762 18.435-5.8084 18.435-5.8084-4.7982 2.2728-5.3033 7.8287-1.0101 5.5558-1.0101 5.5558l-40.659 3.0305s0.2526-4.0406 2.5254-6.3134 3.283-3.5355 3.283-3.5355z" fill="url(#ci)"/>
   <path d="m3147.5 31.35s12.374 6.566 15.784 6.6923 17.173 0.88388 22.981 0.12627 23.865-4.4194 23.865-4.4194 2.1466 1.5152 2.2729 3.9143-0.2526 5.5558-0.2526 5.5558-43.689 0.12627-47.73 0.12627-25.128-0.63135-25.128-0.63135-6.1872-3.1567-7.0711-6.566 0.5051-7.8287 1.1364-7.955 4.5457-1.389 7.3236-0.50508 6.8186 3.6618 6.8186 3.6618z" filter="url(#ei)" stroke="#000"/>
   <path d="m3146.3 39.862s2.1429-3.5714 1.6071-7.6786c-5.5974-13.387-20.817-33.89-31.964-43.036-4.731-4.6925-15.525-8.5729-17.5-3.75s0.7448 6.4601 2.6785 9.1071c11.926 12.374 21.615 19.469 30.357 37.5 0.3571 1.25 2.1428 8.5714 6.6071 10.179s8.2143-2.3214 8.2143-2.3214z" fill="url(#ch)" stroke="#000"/>
   <path d="m2407.4 70.35s33.162 44.59 43.263 183.99c4.1299 56.993 18.183 159.6 18.183 145.46s6.0609-105.06 22.223-117.18 357.59-4.0406 391.94-8.0812 218.19-64.65 238.4-60.609 264.66-36.365 280.82-14.142 38.386 90.914 38.386 90.914 1.1275-36.394 2.0203-50.508c0.8725-13.793-22.358-179.46-38.386-185.87 0 0-36.366-2.0203-64.65 0s-341.43 12.122-353.55 12.122-151.52 10.102-169.71 10.102-257.76-7.388-273.92-7.388-135.01 1.1835-135.01 1.1835z" fill="url(#cg)" filter="url(#em)" opacity=".3047"/>
   <path d="m2460 283.79s-4.3129 147.89-0.8517 183.87c3.3474 34.791 12.646 60.53 26.169 65.137 16.306 5.5558 92.576 36.775 351.86 43.918 106.06 2.4815 167.4 0.80315 286.9-26.689 172.14-34.286 172.65-50.761 214.34-61.984 105.36-28.366 112.27-54.459 112.27-54.459s8.6075-30.505 3.6074-71.219c-6.506-52.978-25.714-204.29-25.714-204.29s-442.86 20-511.43 28.571-442.86 48.571-442.86 48.571l-25.714 8.5714 11.429 54.286z" fill="url(#cf)" opacity=".1845" stroke="#000"/>
   <path d="m2484.3 512.36c5.7143 0 148.57 14.286 200 21.429s241.43 10 241.43 10c38.826-2.9013 57.028 2.9579 108.57-1.4286 7.1428 0 52.857-12.857 65.714-15.714s115.71-24.286 125.71-27.143c84.032-21.034 152.98-48.848 230-82.857 0 0-17.143 18.571-28.571 25.714-111.07 52.936-219.69 83.044-348.57 107.14 0 0-117.14 15.714-122.86 15.714s-218.95-3.2488-344.29-18.571c-70.342-8.5998-120-21.429-120-21.429z" fill="url(#ce)" filter="url(#es)" opacity=".0815"/>
   <path d="m2962.8 578.6c0-2.0203-9.0914-34.345-10.102-50.003s-3.0304-40.406 12.627-53.538 30.81-23.739 54.548-21.718 45.457 5.5558 54.043 21.213 4.0407 46.972 4.0407 46.972l-8.5864 44.447z" filter="url(#et)" stroke="#000"/>
   <path d="m2966.8 578.6c0-2.0203-9.0914-34.345-10.102-50.003s-3.0304-40.406 12.627-53.538 30.81-23.739 54.548-21.718 45.457 5.5558 54.043 21.213 4.0407 46.972 4.0407 46.972l-8.5864 44.447z" fill="#0e0e0e" stroke="#000"/>
   <path d="m2967.3 565.97c0-2.0203-10.607-35.355-8.5863-53.033s10.607-36.365 10.607-36.365l97.48-2.5254s17.678 9.5964 14.647 34.345-7.071 36.366-7.071 36.366z" fill="url(#cd)" opacity=".2275"/>
   <path d="m3023.75,462.25-1.8438.8125-.625,1.875 .9376,1.78125 1.5624.53125 4.5938-.0312h.094 .2187l1.875-.75 .6875-1.875-.875-1.78125-1.5625-.59375h-.3125-.094zm13.375,1.125-.875,1.8125 .7188,1.84375 1.5.75 2.25.25h.094l1.75.28125h.062l.625.125 1.9375-.46875 1-1.71875-.5937-1.90625-1.4376-.84375-.7187-.125h-.062l-1.9062-.28125-.094-.0312-2.3438-.25zm-24-.4375-.062.0312-2.5625.34375h-.094l-2,.34375-1.6562,1.09375-.3438,1.96875 1.2188,1.59375 1.6562.28125 1.9063-.34375h.062l2.4062-.34375h.094l.2812-.0312 1.75-.96875 .4688-1.9375-1.0938-1.65625-1.625-.40625zm39.1562,3.375-1.3124,1.5 .1562,1.96875 1.25,1.125 1.4062.59375 1.2188.53125v.0312l1.2812.65625 .094.0625 .2188.125 1.9687.21875 1.5313-1.28125 .094-2-1.0937-1.28125-.3126-.1875-.094-.0312-1.375-.71875-.094-.0625-1.4376-.65625-.094-.0312-1.4063-.59375zm-53.9687.0625-1.5625.59375-.094.0312-1.875.78125-.094.0625-1.1563.5625-1.3124,1.5 .1874,1.96875 1.5938,1.21875 1.6562-.1875 1.0938-.5 .094-.0625 1.6874-.71875 .094-.0312 1.4375-.53125 1.4375-1.40625-.031-2-1.5-1.3125zm-13.7813,7.625-1.2812,1.0625-.094.0625-1.2812,1.15625-.062.0625-1.1563,1.09375-.7812,1.84375 .8438,1.8125 1.875.65625 1.5312-.6875 1.0938-1.0625 .062-.0625 1.125-1 .094-.0625 1.2188-1 .9062-1.78125-.6875-1.875-1.8437-.78125zm79.3126,1.1875-.8126,1.8125 .5626,1.5625 .75.96875 .031.0312 .062.0937 .6563.9375 .094.125 .625,1 .062.125 .2812.5 1.5626,1.21875 1.9687-.3125 1.125-1.65625-.2813-1.65625-.3437-.625-.062-.125-.7812-1.25-.063-.0937-.8437-1.1875-.094-.125-.8438-1.0625-1.75-.9375zm-89.875,10.3125-.875,1.28125-.063.0937-1.6874,2.65625-.063.0937-.1562.25-.2188,1.96875 1.2813,1.53125 1.9687.0937 1.2813-1.0625 .125-.1875 .031-.0625 1.5937-2.53125 .062-.0625 .8125-1.1875 .4063-1.96875-1.1563-1.59375-2-.28125zm95.8124,4-.062,1.6875 .375,1.125 .031.0937 .7812,2.8125h.031l.125.5625 1.1875,1.59375 1.9688.21875 1.5312-1.3125 .1562-1.65625-.1562-.65625-.031-.0937-.8126-2.90625-.031-.0937-.375-1.25-1.3438-1.5-1.9687-.0312zm-102.4062,8.375-1.0312,1.3125-.4688,1.375-.031.125-.5313,1.875-.031.125-.3437,1.5625 .375,1.96875 1.6875,1.0625 1.9062-.5 .9063-1.40625 .3125-1.46875 .031-.0625v-.0625l.4376-1.59375 .062-.15625 .4063-1.21875-.1563-2-1.5624-1.21875zm105.7812,5.84375-.375,1.625 .1563,1.09375h-.031l.25,2.78125h-.031l.031.90625 .875,1.78125 1.9063.59375 1.7187-.96875 .5-1.59375-.031-.90625v-.125l-.2188-2.84375v-.0937l-.1562-1.21875-1-1.71875-1.9375-.4375zm-108.7812,9.375-.5938,1.5625-.031.6875v.0937l-.031,2.125v.0625l.031,2.125v.0937l.875,1.8125 1.9062.5625 1.75-1 .4376-1.53125h.031v-.0625-.0312l-.031-2v-.0312-.0312l.031-2v-.0625-.625l-.7188-1.875-1.8437-.71875zm109.2812,5.0625-.7812,1.5-.3438,2.3125-.031.125-.4062,2.09375-.031.0937v.0312 .0312l.2813,1.90625 1.6562,1.125 1.9375-.4375 .9375-1.375 .031-.0625 .031-.15625 .5-2.375 .031-.15625 .3437-2.4375-.5-1.9375-1.7813-.9375zm-108.75,10.21875-.375,1.625 .2813,2.375v.0625l.4063,2.59375 1.0624,1.6875 1.9376.375 1.625-1.15625 .3124-1.65625-.375-2.5v-.0937l-.2812-2.28125-1-1.71875-1.9688-.4375zm2.4063,15-.1875,1.65625 .094.40625v.0625l.5312,2.09375v.0625l.4375,1.5 .031.0937 .25.84375 1.3437,1.46875 2,.0625 1.375-1.4375 .031-1.65625-.2188-.71875-.031-.125-.375-1.3125v-.0625l-.5-1.96875v-.0312l-.094-.375-1.1562-1.625-2-.21875z" opacity=".5279" stroke="#000" stroke-width="3"/>
   <path d="m3023.75,462.25-1.8438.8125-.625,1.875 .9376,1.78125 1.5624.53125 4.5938-.0312h.094 .2187l1.875-.75 .6875-1.875-.875-1.78125-1.5625-.59375h-.3125-.094zm13.375,1.125-.875,1.8125 .7188,1.84375 1.5.75 2.25.25h.094l1.75.28125h.062l.625.125 1.9375-.46875 1-1.71875-.5937-1.90625-1.4376-.84375-.7187-.125h-.062l-1.9062-.28125-.094-.0312-2.3438-.25zm-24-.4375-.062.0312-2.5625.34375h-.094l-2,.34375-1.6562,1.09375-.3438,1.96875 1.2188,1.59375 1.6562.28125 1.9063-.34375h.062l2.4062-.34375h.094l.2812-.0312 1.75-.96875 .4688-1.9375-1.0938-1.65625-1.625-.40625zm39.1562,3.375-1.3124,1.5 .1562,1.96875 1.25,1.125 1.4062.59375 1.2188.53125v.0312l1.2812.65625 .094.0625 .2188.125 1.9687.21875 1.5313-1.28125 .094-2-1.0937-1.28125-.3126-.1875-.094-.0312-1.375-.71875-.094-.0625-1.4376-.65625-.094-.0312-1.4063-.59375zm-53.9687.0625-1.5625.59375-.094.0312-1.875.78125-.094.0625-1.1563.5625-1.3124,1.5 .1874,1.96875 1.5938,1.21875 1.6562-.1875 1.0938-.5 .094-.0625 1.6874-.71875 .094-.0312 1.4375-.53125 1.4375-1.40625-.031-2-1.5-1.3125zm-13.7813,7.625-1.2812,1.0625-.094.0625-1.2812,1.15625-.062.0625-1.1563,1.09375-.7812,1.84375 .8438,1.8125 1.875.65625 1.5312-.6875 1.0938-1.0625 .062-.0625 1.125-1 .094-.0625 1.2188-1 .9062-1.78125-.6875-1.875-1.8437-.78125zm79.3126,1.1875-.8126,1.8125 .5626,1.5625 .75.96875 .031.0312 .062.0937 .6563.9375 .094.125 .625,1 .062.125 .2812.5 1.5626,1.21875 1.9687-.3125 1.125-1.65625-.2813-1.65625-.3437-.625-.062-.125-.7812-1.25-.063-.0937-.8437-1.1875-.094-.125-.8438-1.0625-1.75-.9375zm-89.875,10.3125-.875,1.28125-.063.0937-1.6874,2.65625-.063.0937-.1562.25-.2188,1.96875 1.2813,1.53125 1.9687.0937 1.2813-1.0625 .125-.1875 .031-.0625 1.5937-2.53125 .062-.0625 .8125-1.1875 .4063-1.96875-1.1563-1.59375-2-.28125zm95.8124,4-.062,1.6875 .375,1.125 .031.0937 .7812,2.8125h.031l.125.5625 1.1875,1.59375 1.9688.21875 1.5312-1.3125 .1562-1.65625-.1562-.65625-.031-.0937-.8126-2.90625-.031-.0937-.375-1.25-1.3438-1.5-1.9687-.0312zm-102.4062,8.375-1.0312,1.3125-.4688,1.375-.031.125-.5313,1.875-.031.125-.3437,1.5625 .375,1.96875 1.6875,1.0625 1.9062-.5 .9063-1.40625 .3125-1.46875 .031-.0625v-.0625l.4376-1.59375 .062-.15625 .4063-1.21875-.1563-2-1.5624-1.21875zm105.7812,5.84375-.375,1.625 .1563,1.09375h-.031l.25,2.78125h-.031l.031.90625 .875,1.78125 1.9063.59375 1.7187-.96875 .5-1.59375-.031-.90625v-.125l-.2188-2.84375v-.0937l-.1562-1.21875-1-1.71875-1.9375-.4375zm-108.7812,9.375-.5938,1.5625-.031.6875v.0937l-.031,2.125v.0625l.031,2.125v.0937l.875,1.8125 1.9062.5625 1.75-1 .4376-1.53125h.031v-.0625-.0312l-.031-2v-.0312-.0312l.031-2v-.0625-.625l-.7188-1.875-1.8437-.71875zm109.2812,5.0625-.7812,1.5-.3438,2.3125-.031.125-.4062,2.09375-.031.0937v.0312 .0312l.2813,1.90625 1.6562,1.125 1.9375-.4375 .9375-1.375 .031-.0625 .031-.15625 .5-2.375 .031-.15625 .3437-2.4375-.5-1.9375-1.7813-.9375zm-108.75,10.21875-.375,1.625 .2813,2.375v.0625l.4063,2.59375 1.0624,1.6875 1.9376.375 1.625-1.15625 .3124-1.65625-.375-2.5v-.0937l-.2812-2.28125-1-1.71875-1.9688-.4375zm2.4063,15-.1875,1.65625 .094.40625v.0625l.5312,2.09375v.0625l.4375,1.5 .031.0937 .25.84375 1.3437,1.46875 2,.0625 1.375-1.4375 .031-1.65625-.2188-.71875-.031-.125-.375-1.3125v-.0625l-.5-1.96875v-.0312l-.094-.375-1.1562-1.625-2-.21875z"/>
   <path d="m2948.5 668.5c-4.0406-2.0203-22.728-10.102-25.254-24.749s0.505-42.931 0-44.952-15.152-23.739-12.122-23.739 35.355-4.0406 35.355-4.0406l6.0609 35.86s-3.0305 45.457-2.0203 51.518-2.0203 10.102-2.0203 10.102z" filter="url(#eq)" stroke="#000"/>
   <path d="m2959.6 578.43s-1.5946-7.8026 0.7143-10.357c5.1697-5.7196 4.2857-21.071 4.2857-21.071l1.4286-6.4286 2.8571-1.4286s59.286-6.7857 61.071-7.1429 41.786-5.7143 41.786-5.7143 2.1429-3.2143 2.8572 0.71429 1.4286 20 1.4286 20l-3.5715 15s-95 23.929-98.928 23.929-13.929-7.5-13.929-7.5z" filter="url(#ep)" stroke="#000"/>
   <path d="m2966.3 540.21 1.0101 39.901-13.132-2.5254 0.5051 9.0914 14.647 2.0203s57.074-5.5558 77.782-10.102 30.305-5.5558 30.305-5.5558-1.0102-22.728-2.5254-30.81-2.0203-15.152-2.0203-15.152z" fill="url(#p)"/>
   <path d="m2952.7 578.1-0.5051 9.5964 15.657 3.0305s39.396-4.5457 57.074-6.566 50.003-8.5863 50.003-8.5863 0 37.881-2.0203 50.508-6.0609 28.284-6.0609 28.284l-92.934 15.152-3.5355-2.5254s-1.0102 2.0203-8.0812 2.0203-15.152-2.5254-15.152-2.5254-1.5152-72.226-1.0102-79.297 0.5051-8.5863 0.5051-8.5863z" fill="url(#cc)" stroke="#000"/>
   <path d="m2975.9 614.46s-2.5253 26.264-4.0406 34.345-3.0304 18.688-3.0304 18.688l7.5761 2.0203s35.355-4.0406 52.023-7.0711 35.86-6.0609 35.86-6.0609 4.0406-12.122 5.0507-28.284 1.5153-28.789 1.5153-28.789-35.355 9.5964-47.477 10.607-47.477 4.5457-47.477 4.5457z" fill="url(#cb)"/>
   <path d="m3027.9 620c-3.3108 0.19042-5.4286 3.7526-5.25 8.625 0.083 2.2788 0.9855 4.1009 2.2187 5.1562l-0.094 8.5938 5.0938-1.1875v-7.1875c1.5428-1.0604 2.8093-3.2105 2.75-6.625-0.092-5.318-2.3672-7.5103-4.7188-7.375z" stroke="#000" stroke-linecap="round" stroke-linejoin="round"/>
   <path d="m2445.7 1005.2s32.857-18.571 50-24.286 28.571-20 20-22.857-62.857-12.857-62.857-12.857-5.7143-240-7.1428-248.57 54.286-7.1429 60-7.1429 145.71-44.286 182.86-47.143 92.857-12.857 137.14 5.7143 97.143 60 117.14 67.143 95.714 12.857 110 7.1428 77.143-45.714 92.857-50 88.571-41.429 104.29-44.286 51.429-10 64.286-20 20-50 32.857-52.857 30-5.7143 34.286-12.857 28.571-71.429 28.571-71.429-4.2857 144.29-5.7143 150-4.2857 44.286 1.4286 57.143 5.7143 27.143 7.1428 41.429-15.714 68.571-15.714 68.571l15.714 28.571s-64.286 17.143-100 24.286-484.29 80-518.57 95.714-254.29 55.714-260 55.714-88.571 12.857-88.571 12.857z" fill="url(#ca)" filter="url(#er)" opacity=".5279" stroke="#000"/>
   <path d="m3073.8 525.97-1.0625 0.125-106.56 13.125-0.9063 0.125 0.031 0.90625 0.9687 38.625-11.906-2.2812-3.0357-0.21875c0.2479 4.0307 0.3514 7.6153 0.624 11.188l2.5982 0.125 10.696 3.6071c3.2842 0.26243 5.336 0.72118 7.2143-0.53571 0 0 53.418-4.8191 74.335-9.4107 20.675-4.5385 28.58-5.7098 28.58-5.7098l-0.3124-1.5223 2.7049-0.84821s-1.2361-23.048-2.7991-31.384c-1.5032-8.0169-1.1071-14.884-1.1071-14.884l-0.062-1.0312zm-1.1294 1.5045c0.1075 1.3578-0.1317 7.7076 1.2231 14.933 1.4139 7.5405 3.0212 28.489 3.0938 30.049-1.1462 0.12972-10.658 0.9033-30.094 5.1696-20.458 4.4908-77.305 10.072-77.531 10.094l-13.719-1.9062-0.4062-7 11.875 2.2812 1.2188 0.25-0.031-1.25-0.9687-39c34.682-4.4433 71.301-9.1567 105.34-13.621z"/>
   <path d="m2959.8 668.26c9.9 0.71065 7.6587-52.893 8.0358-75.714 0 0-13.304-3.0357-16.412-3.5372-0.074-2.2961 0.059-5.5253 0.1615-10.213l-5.5357-0.35715s0 53.929 0.3571 58.929-0.3572 23.393 1.0714 28.036 12.321 2.8572 12.321 2.8572z" fill="url(#bz)"/>
   <path d="m2967.5 542.01s2.1429 33.929 1.4286 39.643-0.3572 6.4286-0.3572 6.4286l-13.839-1.6071-0.089-8.3929 12.143 2.5z" fill="url(#by)"/>
   <path d="m3072.4 597.31-1.9687 0.5625s-8.8238 2.3861-19.156 4.9062-22.147 4.5112-27.936 4.9936c-12.17 1.0142-47.626 5.1938-47.626 5.1938l-1.2188 0.125-0.125 1.2188s-2.5688 26.419-4.0312 34.219c-1.5256 8.1368-3.0312 18.75-3.0312 18.75l-0.1876 1.3125 1.2813 0.34375 0.094 0.0312c0.9362-1.395 1.6452-2.4732 2.0938-3.1875 0.2761-1.9108 0.2514-9.716 1.5824-16.814 1.4987-7.9932 4.3646-31.25 4.5687-33.376 1.7346-0.17329 34.582-4.5936 46.345-5.5739 17.149-2.0898 38.564-8.6888 47.736-10.165-0.066 1.6135-0.8129 13.521-1.7506 28.526-0.9449 15.116-5.7272 27.055-6.1074 28.23l1.2992-0.2391s5.5226-11.818 6.5455-28.183c1.0111-16.18 1.5-28.812 1.5-28.812z"/>
   <path d="m2357.2 95.031 9.4688 470.91 2.8438 352.12s8.5802-18.732 16.437-10.875 7.7523 25.052 13.031 46.781c3.6789 15.143 8.4063 32.679 13.406 41.25s15.719 15.719 15.719 15.719" fill="none" opacity=".6652" stroke="url(#bx)" stroke-width="5"/>
   <path d="m2374.5 103.79s10 75.714 10.714 90.714 13.571 65 13.571 78.571 14.286 172.86 14.286 172.86 8.5714 272.14 12.143 309.29 3.5714 136.43 3.5714 136.43 3.5714 30.714 0.7143 35.714-5.7143 36.429-5 44.286 2.1428 37.143 2.1428 37.143" fill="none" stroke="url(#bw)" stroke-width="5"/>
   <path d="m2370.8 65.281c-5.4311-0.16628-11.894 0.56211-19.438 0.5625-7.4217 3.8e-4 -15.203-1.425-21.75 0.25-3.2734 0.83752-6.3457 2.6572-8.2188 5.875-3.1041 3.554-1.8822 8.7121-4.125 11.219l-0.4876 3.5467c5.8353-1.9647 4.6099-4.465 8.9564-12.234 1.1567-1.987 2.6975-2.9494 5.0938-3.5625 4.7924-1.2262 12.549-0.09334 20.531-0.09375 7.8603-4.1e-4 14.456-0.71024 19.281-0.5625 2.4129 0.07387 4.3582 0.34472 5.7813 0.90625s2.3359 1.3052 3.125 2.625l0.062 0.09375 0.062 0.0625c1.4556 2.0379 3.929 7.1977 6.6563 14.375s5.8122 16.49 9 27.312c6.3455 21.543 13.057 49.099 18.031 78.125l0.062 0.40625c4.9304 28.878 9.273 97.973 13.562 163.16 2.1447 32.592 4.2941 64.23 6.5312 89.562s4.3608 43.982 7.1563 51.969c5.0764 14.504 10.565 23.692 14.844 29.281s7.625 7.75 7.625 7.75l0.4376 0.28125 0.5 0.0625s212.69 31.444 270.12 37.188c57.665 5.7665 212.24 4.5041 212.24 4.5041l-0.3709-0.54948s-154.75-3.2926-211.37-8.9546c-56.695-5.6694-268.08-36.859-269.25-37.031-0.3966-0.25954-2.4123-1.6351-5.9688-6.2812-3.9247-5.1272-9.1389-13.808-14.062-27.875-2.2045-6.2987-4.7078-25.534-6.9375-50.781s-4.3869-56.883-6.5312-89.469c-4.2887-65.171-8.5242-133.93-13.594-163.62-5.0187-29.395-11.818-57.287-18.25-79.125-3.2163-10.919-6.3349-20.345-9.125-27.688-2.7481-7.2324-5.0654-12.298-7.1562-15.281l0.031-0.03125c-0.028-0.04635-0.066-0.07922-0.094-0.125l-0.031-0.03125c-1.3378-2.1459-3.3013-3.6637-5.5-4.5312-2.2587-0.89123-4.722-1.1981-7.4375-1.2812zm1090.4 362.84c-8.8649 9.2059-24.75 18.84-53.625 33.812-6.7226 3.4858-25.949 10.326-51.781 18.594s-58.476 18.098-92.844 28.031c-68.737 19.866-142.95 41.665-184.95 50.921l-0.421 3.3915c42.277-9.3153 117.95-29.614 186.75-49.5 34.402-9.9428 67.098-19.772 93-28.062s44.821-14.923 52.562-18.938c28.982-15.028 45.231-24.701 54.938-34.781z" fill="url(#bv)"/>
   <path d="m2319.8 83.073s-7.8537 33.932-7.4966 56.075 5 94.643 2.1429 112.5-7.1429 90-7.1429 90l1.4286 187.14s4.2857 161.43 4.2857 171.43v53.571c0 5.7143 5 76.429 5 76.429v58.571l1.4286 19.286s13.571 32.143 11.429 27.143-1.9494-37.466-0.1659-51.385c1.8036-14.076 3.2322-15.707 3.2322-15.707s8.7373 0.77121 9.2424 21.587c0.2599 10.711 4.7475 37.482 4.7475 37.482s3.3009 13.023 11.872 20.166c2.1428 2.1429 10.653-32.161 10.653-35.732" fill="none" stroke="url(#bu)" stroke-width="5"/>
   <path d="m3404.3 469.51s-8.5714 92.857-8.5714 112.86 2.8571 68.571 2.8571 68.571 4.2857 25.714 4.2857 32.857 5.7143 37.143 5.7143 37.143-12.857 47.143-14.286 57.143-11.429 20-4.2857 28.571 14.286 18.571 14.286 18.571" fill="none" filter="url(#en)" opacity=".4592" stroke="url(#bt)" stroke-width="5"/>
   <path d="m2729-20.294c5.1025 14.345 5.4036 46.074-6.9449 65.281-2.2005-0.63398-1.9337-1.8216-2.2728-3.9143 4.9086-10.673 9.2501-22.161 9.7228-31.062 0.505-11.617-1.5858-20.115-1.7678-21.845-0.3807-3.6172-0.4639-5.0552 1.2627-8.46z" fill="#fff"/>
   <path d="m3098.1-11.313c0.7576 1.0102 10.918 10.591 15.211 14.884s16.415 19.193 18.94 24.496 4.5457 13.132 4.5457 13.132c-3.7457-3.437-4.4091-7.6752-6.8185-12.374 0 0-2.247-6.331-12.88-18.183-4.2995-4.7925-17.425-17.93-17.425-17.93-1.2061-1.431-1.0286-2.5942-1.5739-4.0253z" fill="#fff"/>
   <path d="m2608.4 40.755c1.25 0 17.678 0 25 0.53571s29.464 2.1429 29.464 2.1429l6.4286-0.89286s19.286 6.4286 18.571 6.4286-59.464-2.1429-62.321-2.5-24.643-1.0714-24.643-1.0714c2.1772-2.6175 4.4149-3.6145 7.5-4.6429z" fill="url(#bs)"/>
   <path d="m2725.4 32.906c-2.0049-0.34795-3.7746 0.14696-5.1875 1.125s-2.534 2.38-3.5625 3.9062c-2.022 3.0006-3.8008 6.4859-6.25 8.5312-20.985 4.5942-51.008 1.0176-109.11-1.1263l-0.5671 1.3686c58.321 2.152 88.797 6.4616 110.4 1.6326l0.25-0.03125 0.1876-0.15625c3.02-2.4356 4.8089-6.2132 6.75-9.0938 0.9705-1.4402 1.9654-2.6372 3.0312-3.375s2.1892-1.0779 3.7188-0.8125l0.3437-1.9688z" fill="url(#br)"/>
   <path d="m2677.8 32.234c-0.2525 0.50508-5.177 8.3338-6.1872 9.2176s-5.0507 1.7678-5.0507 1.7678c3.6184 0.46087 7.0401 0.07724 9.5964-0.12627 4.8165 0.11185 16.015 1.0287 16.668 1.2627 1.2626 0.63135 4.7982 1.7678 5.4295 1.6415s5.0508-0.88388 5.0508-0.88388-6.1872-0.75761-7.1974-1.5152-6.1871-1.894-7.4498-2.2728c-4.3804-2.1303-8.0751-3.8-8.0812-8.0812 0-1.0102-1.7678-2.2728-1.7678-2.2728l-1.2627 1.894z" filter="url(#ek)" opacity=".3605" stroke="#000"/>
   <path d="m2881.1-66.566c3.5715 0 33.929-9.2857 51.786-11.429s36.072 3.9286 38.572 4.2857 72.857 29.643 72.857 29.643 44.286 21.429 45 22.857 7.5 10 7.5 10l10 12.857 5.7143 5s-24.286 2.8571-28.929 3.2143-16.071 3.2143-16.071 3.2143-12.857-13.929-14.286-15.714-65.714-38.929-69.643-41.071-20.714-11.071-22.5-11.429-35.357-11.786-35.357-11.786-6.4286 6.4286-10.714 6.7857-25.714-0.71429-25.714-0.71429l-57.143 18.929s0-7.5 7.1428-10l41.786-14.643z" fill="url(#bq)" stroke="#000"/>
   <path d="m3063.5 3.4921s-17.887-13.724-25.463-17.764-64.588-35.381-68.629-37.906-42.672-15.601-42.672-15.601-13.79 7.247-17.831 6.7419-16.927-1.0688-16.927-1.0688-23.81 6.2342-30.422 9.0914c6.8697-2.2321 25.994-8.8209 31.044-10.841s10.607-3.5355 13.637-2.5254 5.5558-0.50508 12.122-3.0305 11.617-0.50508 11.617-0.50508 29.294 11.112 31.82 12.122 22.728 10.102 36.87 14.647 36.366 17.173 44.952 20.203 17.173 6.566 21.718 9.0914 6.566 2.0203 8.5863 7.0711 6.566 14.142 6.566 14.142l-10.102 6.0609z" fill="url(#bp)" filter="url(#ej)" opacity=".2103"/>
  </g>
  <path transform="matrix(1 0 0 1.0847 0 -43.788)" d="m2943.3 767.53h-28.187s-17.802-7.4175-23.736-13.352-26.703-31.154-26.703-31.154l-17.802-16.319s-41.538-63.791-38.571-103.85c1.0339-13.957 48.956-19.286 48.956-19.286s450.99-65.274 459.89-66.758 188.4 63.791 188.4 63.791 75.659 29.67 48.956 54.89-489.56 112.75-496.97 115.71-114.23 16.319-114.23 16.319z" fill="url(#bo)" filter="url(#cx)" stroke="#000"/>
  <path d="m2852.2 276.11s-8.1297 1.5735-9.4409 21.767c-1.6314 25.123 0.7868 129.81 0.7868 129.81s11.801 238.12 14.948 252.81c4.9763 23.832 16.077 35.652 38.813 34.092l17.833-2.098-28.323-318.89s-5.8738-60.481-10.752-79.461c-5.5419-21.561-17.197-39.693-23.865-38.026z" fill="url(#bn)"/>
  <path d="m2880.8 380.33s18.544 284.83 20.027 299.67 4.0797 54.89 8.1593 67.129 12.61 21.511 26.703 24.849 34.862 0 34.862 0l557.06-106.81s14.65-3.1524 20.954-10.014 15.762-23.922 18.544-70.837 5.934-130.55 6.1195-131.48 0.7417-31.339 0.7417-31.339l2.0779-46.791z" fill="url(#bm)"/>
  <path d="m2906.3 448.14s12.063 224.49 14.686 233.93-1.6731 52.379 7.8675 63.989c10.194 12.404 16.784 10.49 27.274 12.063s53.499-5.7695 53.499-5.7695" fill="none" filter="url(#dv)" stroke="#000" stroke-width="3"/>
  <path d="m2975.2 756.4s-11.518 1.6685-20.503-8.9246c-4.7863-5.6427-9.651-24.328-9.9088-27.421-0.7417-8.901-11.126-178.76-11.868-181.73s-6.6758-67.499-6.6758-67.499 34.862 16.319 36.346 19.286 17.06 210.66 16.318 215.85-3.7088 50.439-3.7088 50.439z" filter="url(#dx)" stroke="#000"/>
  <path d="m2901.1 449.19s12.063 228.28 14.686 237.88-1.6731 53.265 7.8675 65.071c10.194 12.614 16.784 10.667 27.274 12.267s86.542-14.521 86.542-14.521" fill="none" stroke="#000" stroke-dasharray="4, 8" stroke-linecap="round" stroke-linejoin="round" stroke-width="4"/>
  <path d="m3567.2 422.96s-3.7169 121.24-11.284 185.45c-4.2841 36.356-18.406 48.554-30.676 52.427" fill="none" stroke="#000" stroke-dasharray="4, 8" stroke-linecap="round" stroke-linejoin="round" stroke-width="4"/>
  <path d="m2958.2 504.42 7.343 245.46s1.049 8.392 15.735 8.392 550.72-93.361 550.72-93.361 8.392 0 9.441-7.343 19.931-208.75 19.931-208.75l-2.098-30.421-601.07 24.127z" fill="url(#bl)"/>
  <path d="m3545.1 451.81s-9.3714 132.67-13.112 166.27c-1.792 16.093-2.9159 33.299-8.9165 47.205l-19.406 2.6225s-20.455-40.911-19.406-49.303 17.833-84.969 17.833-89.165 13.112-52.45 13.112-52.45l23.078-24.127z" fill="url(#bk)" filter="url(#ea)"/>
  <path d="m2976.2 517.13 2.098 230.78v9.441l23.078-3.147 15.735-2.098 4.1959-226.58-39.862-15.735z" fill="url(#bj)"/>
  <path d="m3560.4 438.97s0.2117 10.73-0.071 13.656c-2.1295 22.057-11.266 117.57-12.056 131.36-0.6611 11.532-5.7275 68.247-6.294 70.807-1.2026 5.4359-6.3576 8.392-6.3576 8.392" fill="none" filter="url(#dy)" stroke="url(#bi)" stroke-width="1.5"/>
  <path d="m2852.6 275.75s14.093 2.2252 25.961 72.692c7.1754 142.82 116.38 211.13 224.01 205.47 89.752-2.2252 126.84-9.6428 126.84-9.6428l140.93-18.544s97.17-7.4175 146.13-45.247 66.758-65.274 73.434-91.235 12.61-71.95-4.4505-114.97-34.862-65.274-51.181-67.499-100.14 3.7088-100.14 3.7088-76.4 5.934-108.3 8.901-240.33 22.253-243.29 21.511-136.48 11.868-149.09 12.61c-22.654 1.8158-45.185 4.6507-67.499 8.901-12.251 0.16809-16.606 6.0545-20.769 18.544z" fill="#0d0d0d" stroke="#000"/>
  <path d="m3508.5 206.88c-10.177 0.24397-19.03-0.1553-30.535 0.44781-23.011 1.2062-43.969 2.6875-43.969 2.6875h-0.031s-76.381 5.9359-108.31 8.9062c-15.946 1.4834-76.036 7.0569-132.5 12.156-87.818 6.9363-183.83 16.891-259.84 21.969h-0.031c-22.606 1.8119-45.09 4.6734-67.375 8.9062-10.975 2.4891-14.846 6.7114-17.205 12.744" fill="none" stroke="url(#bh)" stroke-width="3"/>
  <path d="m2963.4 486.95s67.136 39.862 108.05 45.107 170.99-8.392 170.99-8.392 183.57-20.98 220.29-37.764c55.562-21.108 85.292-49.809 115.39-97.557l-409.11 50.352z" fill="url(#bg)" filter="url(#eh)" opacity=".1845"/>
  <path d="m3226.3 546.12v-1.669l7.9738-1.2981 95.686-1.2981 0.7418 5.0068 5.934 9.0865-33.379 5.0068-73.248 11.497s-2.967-8.7156-2.967-9.6428-0.7418-16.689-0.7418-16.689z" stroke="#000"/>
  <path d="m3228.5 533.88c-4.4505 0-25.961 2.2253-25.961 2.2253s1.8544 26.703 1.4835 32.266 4.0796 20.769 4.8214 25.59 8.901 18.173 8.901 18.173-0.7417 11.497 0 13.352 10.014 2.5961 18.173 1.8544 51.923-9.2719 57.486-9.2719 28.558-4.8214 30.783-7.4175 10.014-8.1593 10.014-14.835 4.0796-37.458 4.0796-39.684-2.5961-11.126-2.967-13.722-0.3709-11.126-2.2253-11.126-33.379 7.0466-36.346 7.0466-68.241-4.4505-68.241-4.4505z" filter="url(#ee)" opacity=".8589"/>
  <path d="m2869 267.59s9.6428 4.4505 14.093 16.319 17.802 64.532 17.802 64.532 3.7088 66.016 22.994 94.573 41.909 78.255 139.82 90.123 203.61-9.6428 203.61-9.6428 160.59-14.464 212.88-42.651 87.527-47.843 97.911-111.63-20.769-123.13-20.769-123.13-11.868-18.915-21.511-24.849-21.511-11.126-21.511-11.126" fill="none" filter="url(#ef)" opacity=".7842" stroke="#000" stroke-width="5"/>
  <path d="m2863.4 266.57s9.735 4.4934 14.228 16.476 17.972 65.154 17.972 65.154 3.8716 69.799 23.341 98.632 47.554 80.058 146.4 92.04 202.93-11.309 202.93-11.309 162.12-14.604 214.92-43.062 89.322-49.814 99.806-114.22-20.968-126.54-20.968-126.54-11.982-19.097-21.716-25.088c-9.7351-5.9912-21.716-11.233-21.716-11.233" fill="none" stroke="#000" stroke-dasharray="4, 12" stroke-dashoffset="10.8" stroke-linecap="round" stroke-width="4"/>
  <path d="m3215.5 542.41c-0.7417 1.4835-1.8543 47.472 0.7418 55.261s7.7884 25.22 7.7884 25.22 7.4175 1.4835 8.1593-0.37087-2.967-60.453-2.967-62.307-0.7418-19.286-0.7418-19.286z" filter="url(#ec)" opacity=".6805"/>
  <path d="m3218.8 544.12s10.228-11.277 11.277-18.095 0.5245-13.637 1.5735-13.637 98.343-11.539 101.49-11.539 5.2449 2.3602 5.2449 2.3602v26.225l-118.8 16.259z" filter="url(#ed)" stroke="#000"/>
  <path d="m3233.1 514.96-0.7417 29.299-0.7418 16.689 97.911-14.093s5.1922 1.1126 7.4175-5.5631 2.2252-32.266 2.2252-34.121-0.3708-5.5631-3.7087-5.1923-97.54 11.868-97.54 11.868z" fill="url(#bf)"/>
  <path d="m3231.6 569.11c0.7418 0 33.472-4.8678 33.472-4.8678l1.9236-4.4643 30.923-4.1801 5.3534 3.5448 33.472-3.3842s0 39.684-3.3378 45.247-11.868 12.239-12.61 12.239-15.762 1.2981-15.762 1.2981-69.168 9.6428-73.248 9.6428-6.1194-0.92719-6.1194-0.92719-1.2981-0.37088-1.2981-2.4107 1.669-74.732 1.669-74.732 0.7417-1.2981 2.2252 3.1524 2.2253 17.246 2.2253 17.246z" fill="url(#be)"/>
  <path d="m3297.8 555.67c0 0.4636 2.5034 10.663 2.5034 10.663s2.318-0.0927 2.318-0.4636 0.649-6.8612 0.649-6.8612z" fill="url(#bd)"/>
  <path d="m2945.6 379.96s13.637 17.833 40.911 1.049 95.459-35.666 100.7-35.666 110.14-14.686 121.68-14.686 121.68-8.392 130.08-11.539 131.12-26.225 135.32-26.225 43.009-7.343 43.009-7.343 3.147-12.588-9.441-12.588-162.59 10.49-188.82 15.735-197.21 20.98-219.24 19.931-54.548-6.294-67.136-5.245-34.617 11.539-45.107 11.539-59.793-11.539-59.793-11.539-4.1959 16.784-2.098 26.225 19.931 50.352 19.931 50.352z" fill="#fff" filter="url(#eg)" opacity=".3262"/>
  <path d="m3508.5 206.88c-10.177 0.24397-19.03-0.1553-30.535 0.44781-23.011 1.2062-43.969 2.6875-43.969 2.6875h-0.031s-76.381 5.9359-108.31 8.9062c-15.946 1.4834-76.036 7.0569-132.5 12.156-87.818 6.9363-183.83 16.891-259.84 21.969h-0.031c-22.906 6.4442-73.898 0.075-84.58 21.65 14.108-14.283 55.828-16.276 84.798-18.65h0.031c91.976-8.7842 176.33-9.2094 259.91-16.755 56.415-5.095 116.36-15.88 132.38-17.37h0.125c31.847-2.9625 108.19-8.9019 108.25-8.9062h0.031c0.03-2e-3 20.945-1.4839 43.906-2.6875 19.835-2.0119 40.097 2.2745 55.507 11.049-9.8245-10.876-20.148-14.331-25.127-14.497z" fill="#fff" filter="url(#du)" opacity=".5602" stroke="url(#bc)" stroke-width="3"/>
  <path d="m2873.8 318.22c1.9785 13.52 4.844 47.343 10.846 74.066 3.5442 15.78 9.3728 33.199 12.277 40.855 11.539 30.421 31.578 49.356 31.578 49.356s-15.379-14.19-26.487-35.666c-11.801-22.816-19.669-57.957-19.669-57.957s-13.531-94.269-20.193-102.54c-7.6052-9.441-14.686-11.014-16.259-2.6225s-4.7205 58.744-4.7205 58.744l1.049 70.283s-0.5245-114.34 1.5735-126.93 4.4246-12.874 7.931-13.33c13.029-1.694 20.085 33.341 22.074 45.74z" fill="#fff"/>
  <path d="m3267.2 570.78c0.3709 0 33.564-4.0796 33.564-4.0796l-2.8743-11.126-31.154 4.0796z" fill="url(#bb)"/>
  <path d="m3265.3 563.92 1.3908 8.252 0.6027-1.0663-0.3245-11.544z" fill="url(#ba)"/>
  <path d="m3303.3 559.25c-1.3084 3.5147 0.2163 7.0506-2.8725 7.0543l-33.59 4.513-0.046 1.717 34.538-4.6317c1.5388-0.38198 1.7029-0.45553 2.2958-1.8242l0.1898-4.71z"/>
  <path d="m3265.4 563.54-0.2814 0.55031 1.4063 8.3438 0.9687-0.15625z"/>
  <path d="m3228.1 550.87c0.3205 22.789 1.1144 45.578-0.5564 68.366 0 0 4.5219-14.795 4.7841-26.334s0.7868-23.865 0.7868-23.865-2.9811-1.8368-3.0702-2.882c-0.1003-1.1752-0.2548-5.0419-0.3608-6.6055-0.4226-6.2327-1.5835-8.6806-1.5835-8.6806z"/>
  <path d="m3236.4 517.11c1.049 0 97.819-12.326 97.819-12.326" fill="none" filter="url(#eb)" opacity=".5975" stroke="#000" stroke-linecap="round" stroke-width="3"/>
  <path d="m2957.6 508.46 7.8675 239.7s0 5.245 4.7205 7.8675 9.9654 1.5735 9.9654 1.5735l-2.6225-234.98z" fill="url(#az)"/>
  <path d="m3523.7 663.68c0.3708-1.4835 5.1922-5.934 5.5631-10.385s10.384-103.1 12.981-124.99 3.7088-71.579 3.7088-73.063 8.9011-14.835 8.9011-14.835-1.8544 5.1923-1.8544 10.014-10.755 145.01-10.385 146.5-2.5961 35.975-2.967 41.167-4.4505 22.253-6.3049 24.107-9.6427 1.4835-9.6427 1.4835z" filter="url(#dz)"/>
  <path d="m2957.6 508.46 7.8675 239.7c0.9957 7.3837 6.4262 8.5517 11.674 9.5364" fill="none" filter="url(#dw)" opacity=".8299" stroke="url(#ay)" stroke-width="2"/>
  <path d="m2880.8 380.33s18.544 284.83 20.027 299.67 4.0797 54.89 8.1593 67.129 12.61 21.511 26.703 24.849m612.87-116.83c6.3049-6.8612 15.762-23.922 18.544-70.837s5.934-130.55 6.1195-131.48 0.7417-31.339 0.7417-31.339" fill="none" stroke="url(#ax)" stroke-width="2"/>
  <path d="m2901.5 713.54s-8.4195-7.9779-11.272-37.787c-1.284-13.418-4.3807-35.019-6.0363-58.196-5.3522-74.93-13.738-202.58-16.128-239.1-0.2102-3.2127-1.2094-18.882 0.4405-29.3s5.9507-15.595 5.9507-15.595" fill="none" stroke="url(#aw)" stroke-width="3"/>
  <path d="m2903.7 715.39s-18.062-10.574-23.882-40.383c-2.5828-13.23-4.3807-35.019-6.0363-58.196-5.3522-74.93-15.222-199.98-17.612-236.51-0.2102-3.2127-4.3963-30.772 1.5795-42.191 5.0263-9.6044 15.938-7.8966 15.938-7.8966" fill="none" stroke="url(#av)" stroke-width="3"/>
  <path d="m2852.2 276.11s-8.1297 1.5735-9.4409 21.767c-1.6314 25.123 0.7868 129.81 0.7868 129.81s11.801 238.12 14.948 252.81c4.9763 23.832 16.077 35.652 38.813 34.092" fill="none" stroke="url(#au)" stroke-width="3"/>
  <path d="m3374.6 185.44c4.4891 10.214 6.853 18.608 6.8612 30.505 0 0 26.888-2.5034 27.63-2.318s-11.682-23.18-11.682-23.18z" fill="url(#at)"/>
  <path d="m3242.7 110.91c-26.37 0.17536-49.876 6.1335-75.719 16.938-24.532 12.298-56.339 22.345-78.906 42.031l-0.5312 1.9375-11.062 4.9062s-4.9823 2.0883-6.0313 2.875-7.0527 5.5025-9.9374 8.125-6.0626 9.1875-6.0626 9.1875l13.906 15.219s2.8855 5.508 7.3437 7.3438 15.752 1.049 18.375 0c2.5415-1.0166 17.116-11.705 18.031-12.375l0.094 0.0312s53.567-39.663 87.688-51.531c42.224-17.66 91.827-13.479 118.31-1.875 5.9341 1.1126 29.313 11.125 29.313 11.125s31.52 25.404 36.156 28 11.5 5.75 11.5 5.75l18.719-20.227s-1.0242-4.9126-5.75-8.6795c-3.1526-1.6689-15-7.0625-15-7.0625s-5.758-5.9269-9.2813-7.7812-56.941-32.266-96.625-39.312c-16.12-3.2099-30.719-4.7169-44.531-4.625z" fill="url(#o)"/>
  <path d="m3018.5 251.83s18.792 25.846 21.939 27.158 51.138-9.1787 51.138-9.1787 4.7205 3.147 1.5735 6.294-44.058 11.801-50.876 12.326-34.092-6.5562-44.32-9.1787-38.288-7.343-44.845-7.0807-40.649 4.196-46.156 6.5562-14.161 1.049-12.326-0.78674 6.5562-7.8675 16.259-9.9655 41.173-4.196 47.467-4.196 20.718-5.7695 28.061-2.6225c26.151 4.0633 23.812 0.58671 29.507-1.7271 0.5245-2.098 2.5776-7.5975 2.5776-7.5975z" fill="url(#as)" filter="url(#dt)" opacity=".8755"/>
  <path d="m3054.2 196.94c0.1855 0.74175 15.206 15.948 15.206 15.948s9.0865-9.6428 12.239-10.941 8.1593-3.7088 8.1593-3.7088l-26.518-12.053z" fill="url(#ar)"/>
  <path d="m3085.9 199.53 22.994 9.0865 12.239-8.1593s0.9272-18.173 0.1854-18.729-15.577-10.941-15.577-10.941-1.669 2.2252-2.5962 7.4175-0.1854 7.9738-1.1126 7.9738-14.835 10.57-14.835 10.57z" fill="url(#aq)"/>
  <path d="m3069.4 177.09s-14.102 7.4291-28.938 26.344-21.875 50.438-21.875 50.438l20.406 29.656 5.1876-4.0625 12.594-18.562 40.062-60.438-6.625-2.6562c-8.5597 3.3402-15.549 8.311-21.938 14.875l-3.5313 0.75-19.469-5.1875 6.5864-6.9774c0.97-1.4188 1.9335-2.8483 2.9141-4.2688 5.5225-8.3433 13.229-15.72 20.145-19.842-0.6843-2.1138-3.9979-0.93305-5.5205-0.068z" fill="url(#ap)"/>
  <path d="m3369.5 218.26s4.4505-0.74175 2.5961 4.0796-4.4505 4.4505-12.61 4.4505-38.571-5.1923-56.373-2.2253-160.22 13.352-171.34 15.577-39.313 6.6758-42.28 8.901-22.994 12.61-22.994 12.61l11.126 5.934s3.7088-1.4835 6.6758-1.4835 59.34-14.835 79.368-16.319 91.235-8.1593 103.85-8.901 59.34-1.4835 83.076 0 51.181 11.126 60.082 11.868 30.606 6.0434 32.704 4.9944 8.9165-6.8185 8.9165-6.8185 0.5245-4.7205-2.6225-4.7205 1.049-2.098-8.392-2.6225-31.994-3.6715-31.994-3.6715l-26.225-17.833z" filter="url(#ds)" opacity=".8797" stroke="#000"/>
  <path d="m3087.9 273.52s6.3049-28.928 10.384-38.571 12.981-18.173 11.868-25.22-8.1592-12.981-13.722-11.868-27.074 11.497-37.829 31.895c-8.7178 17.114-17.757 31.616-19.286 54.148z" fill="url(#ao)"/>
  <path d="m3054.8 197.09c0.7418 0.18544 14.234 14.867 14.234 14.867-15.888 15.145-22.472 30.55-30.041 48.77l-14.65-18.729c5.9221-18.171 9.804-29.837 24.46-41.488 2.182-1.7346 4.2067-2.8856 5.9965-3.42z" fill="#808080"/>
  <path d="m3381.1 216.04 28.187-2.5961 38.2 24.107-37.829 0.37088z" fill="url(#an)"/>
  <path d="m3403.1 215.3s-21.233 1.2981-20.491 0.92718c0.3708-0.83446 20.213-2.1325 20.213-2.1325z" fill="url(#am)" filter="url(#dk)"/>
  <path d="m3381.1 215.85-0.7417 5.934 28.557 24.478v-8.901z" stroke="#000"/>
  <path d="m3408.9 241.63c0-0.74176-1.3666-23.746-8.5301-34.491-7.0466-10.57-11.126-20.213-7.9738-27.074s13.352-8.3447 18.173-5.934 18.196 14.458 27.63 27.259c16.322 22.148 14.279 43.578 14.279 43.578s-28.87 1.6106-43.392 0.92719z" fill="url(#al)"/>
  <path d="m3088 171.73s2.9483-0.0318 6.1535 2.7947c3.9779 3.508 6.8185 8.9165 7.343 10.228s3.5123-9.1655 3.5123-9.1655 3.6134-3.7483 2.3022-4.2728-7.2476-1.9444-9.6078-2.4689-5.0596-1.0622-6.8953-0.27543-2.8079 3.1602-2.8079 3.1602z" filter="url(#do)"/>
  <path d="m3106.8 176.72s78.626-41.167 112.38-47.472 48.535-2.2553 60.104-2.2066c7.571 0.0319 24.455 4.4319 24.455 4.4319s-22.43-5.0017-45.989-2.8397c-12.402 1.1382-25.559 2.3679-41.164 7.0043-22.183 6.5912-41.427 15.282-49.701 19.201-14.093 6.6758-50.439 25.22-54.89 25.59s-5.1922-3.7088-5.1922-3.7088z" fill="url(#ak)" filter="url(#dn)"/>
  <path d="m3375.1 150.23c-25.492-11.3-55.781-22.534-82.474-30.239-19.67-5.6776-36.268-3.6367-53.895-1.2312-28.847 4.196-118.01 45.107-118.01 45.107s-14.161 4.7205-16.259 8.392-2.3602 14.424-2.3602 14.424c-8.633 4.5693-11.738 7.7206-16.522 12.326" fill="none" filter="url(#dr)" opacity=".556" stroke="url(#aj)"/>
  <path d="m3392.8 197.12c-1.4835 0-33.75-22.623-33.75-22.623s-8.5301-8.5302-10.384-8.5302-59.34-21.511-59.34-21.511l-18.915-1.1126s13.722-2.2252 15.206-1.8544 33.008 7.0466 39.684 10.014 27.074 12.981 28.558 13.722 24.478 17.06 25.961 17.06 11.126 6.3049 11.126 6.3049z" filter="url(#dp)" stroke="#000"/>
  <path d="m3387.6 173.39s-1.298 2.0398-1.6689 5.934c-0.3868 4.0612 0.5563 5.0068 0.5563 5.0068s-25.405-18.173-35.048-22.994-48.399-19.471-57.3-20.954-58.805-0.0202-83.447 8.1593c-44.134 14.65-85.672 43.392-85.672 43.392l-8.5301 7.4175-5.5632-4.8214s4.8214-5.1923 12.61-6.6758 49.326-25.59 65.274-32.637c37.342-16.58 81.497-20.432 115.71-14.835 15.206 3.7088 41.909 15.948 45.989 17.802 14.443 6.1183 23.854 10.864 37.088 15.206z" fill="url(#ai)" filter="url(#dq)" opacity=".5602"/>
  <path d="m3386.6 157.33c-7.8466-5.1923-52.36-28.604-71.242-33.849-11.089-3.0802-19.282-6.8576-31.912-9.4665-8.8763-1.8335-19.944-3.0899-35.748-3.1214-42.572-0.085-81.246 16.484-112.17 31.08-5.8596 2.7659-32.09 13.547-45.181 27.139" fill="none" filter="url(#dm)" stroke="url(#ah)"/>
  <path d="m3073.9 177.62c-9.2355 1.397-22.291 17.123-30.806 25.322-9.6034 10.974-15.622 24.962-18.751 37.895-0.4918 0 11.247-29.765 15.866-31.732 1.7507-2.02 12.55-12.592 14.948-12.326 0 0 9.649-12.318 12.271-14.153s6.4714-5.0052 6.4714-5.0052z" fill="url(#ag)"/>
  <path d="m3055.5 197.5c10.553-14.611 17.068-18.771 31.994-25.241" fill="none" filter="url(#dl)" stroke="url(#af)"/>
  <path d="m3391.4 187.87s4.151 8.5165 6.2489 11.926 7.6053 15.735 8.6543 19.144 3.1469 17.833 4.1959 18.357c8.5836 3.4589 23.123 4.5054 31.732 2.6225 2.8847-0.78674 10.228-3.9337 10.228-3.9337l0.7868 9.1787-44.058 2.098-28.585-25.7s-0.7868-5.5072-0.5245-6.5562 0.9208-2.3071 1.6503-4.0714c-0.4307-11.364-4.5126-19.731-6.5431-25.181 0 0 5.155 9.0596 7.253 12.207s3.4092 11.801 2.8847 13.637-1.8357 2.8847-1.8357 4.4582-1.3112 1.8357 0.5245 3.147 22.816 16.784 22.816 16.784-1.5735-15.21-6.0318-24.651-6.5562-13.637-7.3429-15.997c-1.714-3.6583-2.053-7.4675-2.053-7.4675z"/>
  <path d="m3383.3 217.64 22.067 17.06" fill="none" filter="url(#dj)" stroke="#fff" stroke-linecap="round" stroke-width="1.5"/>
  <path d="m3396.7 176.32c3.4334-2.9182 10.865-3.5804 13.902-1.9669 11.369 6.0387 21.404 19.117 28.636 28.204s11.883 22.423 12.43 30.524c-6.9463-20.061-14.865-32.788-22.654-40.39-12.87-11.451-24.173-22.697-33.014-13.342-1.6231 1.7174-2.2159 4.8238-2.8595 8.8374-0.8173-8.1921 0.9929-9.6858 3.5586-11.866z" fill="#1a1a1a" filter="url(#di)"/>
  <path transform="matrix(.96334 0 0 .96334 124.93 6.9171)" d="m3410.5 184.83c0.5348 0.69686 0.8584 1.5653 0.8584 2.5116 0 2.2839-1.849 4.1329-4.1329 4.1329-1.9262 0-3.5143-1.3329-3.974-3.1156 0.1183 2.3256 2.0323 4.1647 4.3873 4.1647 2.4312 0 4.3872-1.956 4.3872-4.3873 0-1.3224-0.6029-2.4994-1.526-3.3064z" filter="url(#n)"/>
  <path transform="translate(1120.3 -.18544)" d="m2291.1 187.86c0 2.245-1.8199 4.0649-4.0648 4.0649-2.245 0-4.0649-1.8199-4.0649-4.0649s1.8199-4.0649 4.0649-4.0649 4.0648 1.8199 4.0648 4.0649z" fill="url(#f)" opacity=".6183"/>
  <path transform="matrix(.96334 0 0 .96334 -187.07 31.268)" d="m3410.5 184.83c0.5348 0.69686 0.8584 1.5653 0.8584 2.5116 0 2.2839-1.849 4.1329-4.1329 4.1329-1.9262 0-3.5143-1.3329-3.974-3.1156 0.1183 2.3256 2.0323 4.1647 4.3873 4.1647 2.4312 0 4.3872-1.956 4.3872-4.3873 0-1.3224-0.6029-2.4994-1.526-3.3064z" filter="url(#n)"/>
  <path transform="translate(808.27 24.165)" d="m2291.1 187.86c0 2.245-1.8199 4.0649-4.0648 4.0649-2.245 0-4.0649-1.8199-4.0649-4.0649s1.8199-4.0649 4.0649-4.0649 4.0648 1.8199 4.0648 4.0649z" fill="url(#f)" opacity=".6183"/>
  <path d="m3024.1 241.75 14.948 18.62s4.4582-11.277 9.1787-20.718 8.9165-14.686 8.9165-14.686-3.4093-0.26225-4.7205-1.5735-0.2623-6.0317 0.2622-9.441 2.6225-12.063 2.6225-12.063-3.4092 1.3112-6.294 3.4092-6.8184 4.7205-6.8184 4.7205c1.7469-4.901 6.4573-7.0327 10.49-9.9655l0.5245-2.098c-9.8856 4.932-15.853 13.137-20.914 22.947-2.42 4.6902-8.1953 20.849-8.1953 20.849z" fill="url(#ae)"/>
  <path transform="matrix(.92361 0 0 .92361 231.65 19.082)" d="m3024.9 239.22 15.762 16.875-1.4835 4.2651-15.02-18.915z" filter="url(#dh)"/>
  <path d="m3019.5 250.29c0.7417 0 10.045 1.9087 12.271 4.6903s9.6428 9.2719 9.6428 9.2719c9.2163-19.015 16.504-40.116 33.286-53.87 4.5421-3.7143 11.342-9.0669 14.371-10.014l4.4505-1.3908c-14.593 8.8717-23.151 16.845-32.03 31.85-6.3491 10.701-11.599 23.339-13.031 27.305-2.4107 6.6758-4.2651 17.617-4.2651 17.617s8.901-0.18544 14.279-1.4835 13.722-1.2981 20.769-4.4505 11.411-6.142 11.411-6.142l-1.3881 10.977-51.203 10.887-19.652-31.613z" filter="url(#dg)"/>
  <path d="m3054.7334,196.85906c0-.56723-11.0513,5.45828-17.9834,15.60969-3.4151,5.00105-6.6321,12.06222-8.9062,18.09375-1.1371,3.01576-2.0397,5.77864-2.6563,7.84375-.3083,1.03256-.5359,1.87869-.6875,2.53125-.076.32628-.1532.61538-.1875.84375 .1204.95903.656.51014 1.4687.3125 .055.21798.01.0706.031-.0937 .025-.16436.055-.41656.125-.71875 .1404-.60439.3853-1.45659.6875-2.46875 .6045-2.02433 1.5002-4.73557 2.625-7.71875 6.3783-19.9809 16.289-27.3539 25.4837-34.23474z"/>
  <g transform="matrix(.94608 0 0 .94608 143.69 58.11)">
   <path d="m4251.7 690.39s-117.12-25.49-167.64-43.022c-32.195-11.172-179.85-48.388-213.62-65.274-80.889-48.56-48.548-111.68 20.769-115.71l532.58 115.71s-132.03 4.4505-155.77 5.934-31.154 2.967-32.637 8.901 16.319 93.461 16.319 93.461z" fill="url(#ad)" filter="url(#cv)"/>
   <g transform="translate(-29.67 23.736)">
    <path d="m3923.9 121.07s3.0197-5.4622 18.755-5.9867 358.23 8.9165 360.33 9.441 127.98 3.147 133.75 3.147 21.504 1.049 25.176 2.6225 6.8185 16.784 6.8185 16.784-2.6225 50.876-2.6225 55.597-2.6225 119.06-2.6225 119.06l-8.9165 226.58s2.098 14.686-7.8675 14.686h-37.239c-3.147 0-61.891-3.6715-65.562-3.6715s-62.415-4.196-62.415-4.196l-341.45-52.45s0-326.24-4.1959-335.68-11.936-45.939-11.936-45.939z" fill="url(#ac)"/>
    <path d="m4405.8 236.24-12.063 292.67 3.4863 16.471 31.13 3.4602 13.112-312.6z" fill="url(#ab)"/>
    <path d="m4404.2 545.7 7.343-161.55-159.45-12.588s-6.8185 158.92-4.196 159.97 4.196 3.6715 4.196 3.6715z" fill="url(#aa)"/>
    <path d="m4421.3 239 20.302-0.46633-5.9522 308.21 11.719-306.92-0.9799-8.5801 2.8979-64.235-6.1404 65.472-20.273-0.82628z" filter="url(#da)" opacity=".6224"/>
    <path d="m4449.3 167.53-321.52-7.343s-3.6715 27.798-0.5245 28.847 80.773 50.352 84.969 50.876 201.93-6.294 201.93-6.294 28.102 2.1411 28.323 0z" fill="url(#z)"/>
    <path d="m4019.6 139.27s313.02 8.901 329.34 10.385 98.653 5.934 98.653 5.934" fill="none" filter="url(#cy)" stroke="url(#y)" stroke-width="3"/>
    <path d="m4147.7 161.76 301.06 6.294" fill="none" filter="url(#cz)" stroke="url(#x)" stroke-width="3"/>
    <path d="m4422.5 240.14c8.3057-21.36 6.9343-31.632-10.57-45.247l-149.83-2.967-14.835 28.187s16.318 7.4175 23.736 8.901 151.5 11.126 151.5 11.126z" filter="url(#dc)" opacity=".8174"/>
    <path d="m4276.2 214.21 42.484 2.098s68.709 1.5735 70.807 1.5735 30.198 0.15361 30.198 0.15361 3.8942 1.9444 3.8942 6.6649-6.2939 134.27-6.2939 145.29 0.5245 22.553-3.147 26.225-6.8185 8.9165-27.274 9.9654-62.94-4.7205-68.709-4.7205-52.45-1.5735-52.45-1.5735l5.245-168.89z" fill="url(#w)"/>
    <path d="m4274.7 390.45s93.361 4.196 100.7 5.245 19.931 0 26.225-4.196 6.294-79.724 7.343-100.7 4.196-59.793 6.294-67.136l2.098-7.343" fill="none" opacity=".8548" stroke="#000" stroke-dasharray="6.19999981, 6.19999981" stroke-linecap="round" stroke-width="3.1"/>
    <path d="m4285.8 218.63s-1.4835 26.703 4.4505 43.022 7.4175 137.97 7.4175 137.97l34.121 4.4505s-29.67 35.604-29.67 56.373v81.593l10.384 11.868-22.252 1.4835-19.286-50.439s-1.4835-148.35-1.4835-155.77 1.4835-118.68 1.4835-118.68z" filter="url(#db)" opacity=".8382"/>
    <path d="m3923.9 120.72c5.9341 0 219.56 37.088 234.39 41.538 14.835 4.4505 104.86 13.666 104.86 13.666s8.9165 0.5245 12.588 9.9655 5.7694 32.519 5.7694 32.519c-4.6692 135.21 3.92 255.99 12.064 399.67 0 0 5.245 35.141 3.147 38.288s-10.49 8.9165-17.833 9.441-314.17-113.82-319.94-114.87-34.092-6.294-34.617-8.9165-2.6225-22.553-2.6225-22.553l-0.5245-227.63s-0.5245-146.86 0.5245-156.82 2.1975-14.294 2.1975-14.294z" fill="url(#v)"/>
    <path d="m4190.5 560.58 6.1194-2.0398s16.69 6.1194 27.074 9.4573 26.842 7.0466 26.842 7.0466l-4.7286 3.0134s-43.068-10.06-46.406-12.1-8.901-5.3777-8.901-5.3777z" fill="#151515"/>
    <path d="m4250.6 575.04 2.5961 20.027-4.2651 1.4835s-2.967-5.0068-3.3378-9.2719 0.2782-10.385 0.2782-10.385z" fill="#1a1a1a"/>
    <path d="m4190.6 560.17c18.539 8.8183 36.552 13.336 55.732 16.548 0 0 0.1855 7.9738 0.7418 10.941s2.0398 8.901 2.0398 8.901c-19.754-3.4674-37.058-7.558-55.631-16.875-2.5909-6.3516-3.0502-12.853-2.882-19.515z" fill="#fff"/>
    <path d="m3938.7 539.07s0-318.95 1.4835-354.56 1.4835-41.538 1.4835-41.538l7.4175-2.967s283.35 31.154 307.09 60.824c10.847 13.559 16.318 231.43 16.318 247.75s2.9671 81.593 2.9671 81.593-20.769-229.94-31.154-262.58-58.428-35.648-83.138-64.405c-77.721-17.785-190.09-55.01-194.28 55.504 0 26.703-19.286 216.59-19.286 228.46s-8.901 51.923-8.901 51.923z" fill="url(#u)" filter="url(#df)" opacity=".5021" stroke="#000"/>
    <path d="m3950.6 539.07c5.934-1.4835 309.31 106.81 309.31 106.81s7.4175 7.4175 14.835 1.4835 7.4175-17.802 7.4175-17.802c-7.1754-5.5696-17.679-280.86-17.06-341.21 0.6385-62.322 0-86.043 0-86.043s-5.934-10.385-19.286-10.385c-108.14-21.967-213.44-38.74-321.92-61.565" fill="none" stroke="#000" stroke-dasharray="6.2, 6.2" stroke-linecap="round" stroke-width="3.1"/>
    <path d="m3926.8 123.69s116.18 19.865 186.67 32.935c24.26 4.4981 43.107 9.4992 49.944 10.829 19.293 3.7514 56.434 8.3897 78.765 11.257 4.5125 0.57948 23.599-0.45731 28.676 9.4624 4.2287 8.262 6.1602 25.368 6.1602 25.368" fill="none" filter="url(#de)" opacity=".9668" stroke="url(#t)" stroke-linecap="round" stroke-width="3"/>
    <path d="m3926.4 539.4s35.141 8.392 42.484 11.014 269.59 95.459 275.36 99.655c20.262 9.3089 35.007 12.304 41.463 8.1452 8.2401-5.3073 6.1178-16.712 4.2264-39.741-4.429-53.925-15.77-246.04-13.5-394.82" fill="none" filter="url(#dd)" opacity=".9876" stroke="url(#s)" stroke-linecap="round" stroke-width="5"/>
   </g>
  </g>
 </g>
</svg>
